<svg width="325" height="325" viewBox="0 0 325 325" fill="none" xmlns="http://www.w3.org/2000/svg">
<g clip-path="url(#clip0_33_682)">
<path d="M174.537 230.37L174.55 230.582C174.841 232.603 176.009 234.72 177.192 236.391C180.026 240.446 183.375 243.877 188.688 242.178C190.919 241.491 192.883 240.248 194.369 238.46C195.854 236.672 196.455 234.3 195.998 231.991C195.699 230.905 195.277 229.89 194.708 228.905C193.416 226.476 192.041 224.095 190.585 221.762C190.223 221.04 189.697 220.414 189.071 219.899C187.98 219.051 186.404 218.976 185.071 219.417C183.762 219.899 182.554 220.651 181.53 221.626C179.691 223.18 177.964 224.834 176.437 226.646C175.443 227.768 174.425 228.848 174.537 230.37Z" fill="#231F20"/>
<path d="M191.541 241.241C190.679 241.739 189.77 242.155 188.789 242.447C183.206 244.248 179.668 240.489 176.946 236.532C175.366 234.27 174.528 232.345 174.232 230.601C174.25 230.536 174.202 230.454 174.22 230.389C174.083 228.826 175.078 227.704 176.031 226.606L176.172 226.471C177.739 224.635 179.466 222.981 181.305 221.427C182.371 220.428 183.602 219.717 184.952 219.212C186.385 218.658 187.991 218.881 189.253 219.739C189.902 220.295 190.428 220.922 190.854 221.661C192.311 223.994 193.686 226.375 194.978 228.803C195.547 229.788 195.993 230.845 196.291 231.931C196.796 234.322 196.137 236.782 194.593 238.659C193.763 239.685 192.732 240.554 191.541 241.241ZM174.854 230.351L174.867 230.562C175.092 232.184 175.947 234.044 177.479 236.224C180.242 240.157 183.462 243.553 188.628 241.884C190.777 241.245 192.741 240.001 194.185 238.237C195.612 236.538 196.196 234.23 195.745 232.028C195.47 230.982 195.048 229.967 194.462 229.047C193.193 226.659 191.754 224.261 190.362 221.945C189.983 221.288 189.521 220.679 188.92 220.205C187.793 219.487 186.446 219.334 185.178 219.793C183.934 220.292 182.744 220.979 181.76 221.93C179.921 223.485 178.194 225.139 176.644 226.909L176.504 227.045C175.608 228.055 174.754 229.04 174.854 230.351Z" fill="#231F20"/>
<path d="M133.051 93.9548L170.012 82.796C173.141 81.8649 176.388 83.6024 177.319 86.732L194.375 143.385C195.306 146.515 193.568 149.762 190.439 150.693L153.478 161.852C150.349 162.783 147.101 161.046 146.17 157.916L129.115 101.263C128.208 98.1742 129.963 94.8623 133.051 93.9548Z" fill="black"/>
<path d="M117.614 130.07C117.614 130.07 121.993 144.29 126.736 147.955C131.479 151.62 144.012 135.408 144.012 135.408C144.012 135.408 147.305 167.277 150.021 184.209C152.736 201.141 172.417 223.001 172.417 223.001C172.417 223.001 174.919 238.141 180.058 239.552C185.196 240.964 196.183 236.482 194.562 230.357C192.941 224.232 187.062 213.67 187.062 213.67C187.062 213.67 174.736 195.828 174.636 183.9C174.536 171.971 174.477 160.019 174.477 160.019L181.01 165.551C181.01 165.551 196.382 217.867 200.819 217.495C205.256 217.122 224.533 192.967 217.599 187.118C210.664 181.27 206.95 189.435 206.95 189.435C206.95 189.435 212.566 162.001 207.006 153.224C201.446 144.448 185.736 136.387 185.736 136.387L182.013 121.405C182.013 121.405 216.231 132.135 217.985 115.36L206.074 103.736C206.074 103.736 204.594 110.557 196.729 108.311C188.864 106.065 182.498 94.4698 161.817 100.171C141.135 105.872 117.614 130.07 117.614 130.07Z" fill="white"/>
<path d="M190.38 237.807C187.137 239.68 182.755 240.622 179.906 239.859C174.791 238.488 172.277 224.559 172.065 223.149C170.836 221.779 152.281 200.637 149.662 184.252C147.237 168.959 144.273 141.169 143.763 136.209C141.728 138.752 133.904 148.141 128.909 148.78C128.069 148.937 127.227 148.711 126.561 148.22C121.794 144.514 117.529 130.775 117.344 130.171C117.297 130.089 117.331 129.959 117.431 129.847C117.671 129.599 141.233 105.377 161.75 99.771C176.812 95.6179 184.348 100.517 190.362 104.488C192.662 106.007 194.673 107.309 196.833 107.922C199.276 108.646 201.327 108.502 202.905 107.537C204.335 106.601 205.334 105.203 205.768 103.585C205.803 103.455 205.861 103.367 205.967 103.36C206.073 103.354 206.178 103.348 206.291 103.447L218.201 115.07C218.248 115.153 218.296 115.235 218.302 115.34C218.115 118.24 216.51 120.863 214.077 122.432C210.073 125.072 203.444 125.725 194.361 124.401C190.354 123.813 186.353 122.949 182.461 121.803L186.058 136.091C187.549 136.872 201.93 144.716 207.229 153.041C212.06 160.651 208.708 181.578 207.571 187.762C208.395 186.63 209.777 185.23 211.662 184.799C213.547 184.367 215.649 185.069 217.774 186.853C219.562 188.338 219.85 191.018 218.632 194.786C215.611 204.248 204.194 217.462 200.815 217.771C199.992 217.863 197.794 218.037 188.952 191.726C184.793 179.404 181.069 166.885 180.763 165.693L174.791 160.658C174.803 163.333 174.866 173.586 174.93 183.839C175.017 195.556 187.207 213.258 187.302 213.422C187.397 213.586 193.253 224.107 194.873 230.232C195.393 232.176 194.767 234.125 193.064 235.82C192.221 236.635 191.324 237.262 190.38 237.807ZM143.805 135.144C143.887 135.097 143.952 135.114 144.058 135.108C144.188 135.143 144.259 135.266 144.265 135.372C144.284 135.689 147.588 167.387 150.25 184.131C152.905 200.77 172.368 222.537 172.551 222.759C172.575 222.8 172.599 222.841 172.646 222.923C172.676 223.07 175.159 237.893 180.08 239.211C183.576 240.148 189.624 238.299 192.527 235.364C193.61 234.301 194.778 232.532 194.204 230.4C192.589 224.381 186.757 213.9 186.686 213.777C184.426 210.43 182.37 206.965 180.496 203.34C177.661 197.861 174.264 190.08 174.23 183.86C174.13 171.931 174.071 159.979 174.071 159.979C174.082 159.809 174.222 159.673 174.393 159.684C174.458 159.701 174.522 159.718 174.587 159.736L181.12 165.268C181.144 165.309 181.191 165.392 181.215 165.433C187.137 185.549 197.65 217.409 200.671 217.143C203.545 216.906 214.888 204.227 217.92 194.595C219.027 191.11 218.817 188.659 217.229 187.331C215.282 185.664 213.398 185.056 211.635 185.416C208.681 186.082 207.103 189.511 207.062 189.534C206.986 189.688 206.822 189.782 206.669 189.707C206.516 189.631 206.421 189.467 206.497 189.313C206.566 189.054 212.007 161.886 206.566 153.314C201.124 144.743 185.643 136.604 185.49 136.529C185.401 136.47 185.378 136.429 185.33 136.347L181.607 121.365C181.6 121.26 181.594 121.154 181.693 121.042C181.752 120.953 181.899 120.923 181.987 120.982C182.205 121.075 204.359 127.878 213.616 121.823C215.843 120.372 217.314 117.991 217.538 115.344L206.123 104.2C205.625 105.802 204.537 107.141 203.107 108.077L203.025 108.124C201.301 109.119 199.079 109.253 196.53 108.535C194.305 107.904 192.182 106.503 189.906 105.025C183.963 101.177 176.58 96.3538 161.788 100.406C142.258 105.825 119.823 128.302 117.879 130.245C118.404 131.912 122.511 144.429 126.812 147.802C127.366 148.193 128.055 148.343 128.707 148.24C134.06 147.558 143.524 135.416 143.624 135.304C143.747 135.233 143.764 135.168 143.805 135.144Z" fill="#231F20"/>
<path d="M207.695 116.593C208.601 117.877 209.77 118.953 211.131 119.7C212.533 120.422 214.174 120.515 215.647 119.938C217.097 119.32 218.049 117.84 217.953 116.253C217.874 115.642 217.648 115.061 217.381 114.504C216.039 111.611 214.082 109.074 211.686 107.01C210.789 106.214 209.775 105.595 208.644 105.154C201.779 102.932 205.779 114.032 207.695 116.593Z" fill="#231F20"/>
<path d="M216.207 120.053C216.083 120.124 215.919 120.219 215.772 120.249C214.217 120.873 212.447 120.746 210.997 119.941C209.571 119.177 208.337 118.083 207.449 116.735C205.923 114.661 203.33 107.893 205.094 105.451C205.802 104.496 207.041 104.273 208.796 104.847C209.968 105.265 211.005 105.925 211.926 106.761C214.346 108.867 216.327 111.445 217.669 114.338C217.959 114.936 218.144 115.541 218.247 116.193C218.407 117.797 217.561 119.271 216.207 120.053ZM206.07 105.435C205.906 105.53 205.725 105.69 205.608 105.867C204.077 107.955 206.504 114.435 207.983 116.427C208.823 117.693 209.969 118.729 211.306 119.434C212.644 120.14 214.179 120.239 215.57 119.709C216.937 119.139 217.79 117.771 217.725 116.331C217.628 115.784 217.467 115.221 217.2 114.663C215.882 111.812 213.948 109.316 211.576 107.292C210.743 106.514 209.729 105.895 208.663 105.471C207.474 105.117 206.645 105.104 206.07 105.435Z" fill="#231F20"/>
<path d="M129.967 134.213C131.871 132.676 132.718 130.161 133.019 127.744C133.161 126.567 133.167 125.25 132.615 124.2C131.809 122.804 130.219 122.135 128.668 122.483C127.623 122.758 126.756 123.532 125.948 124.218C123.629 126.269 120.898 128.174 119.098 130.745C117.182 133.493 120.052 134.956 122.636 135.545C124.984 136.104 127.981 135.797 129.967 134.213Z" fill="#231F20"/>
<path d="M129.295 135.039C127.242 136.224 124.509 136.324 122.549 135.868C120.954 135.476 118.869 134.709 118.333 133.212C118.03 132.402 118.232 131.519 118.874 130.546C120.224 128.618 122.022 127.087 123.844 125.597C124.47 125.071 125.138 124.522 125.741 123.954C126.526 123.228 127.434 122.43 128.585 122.149C130.258 121.73 132.067 122.492 132.903 124.034C133.549 125.248 133.485 126.654 133.319 127.789C133.04 129.866 132.277 132.715 130.174 134.476C129.887 134.642 129.623 134.849 129.295 135.039ZM127.796 123.152C127.203 123.548 126.635 123.986 126.132 124.441C125.528 125.008 124.861 125.558 124.193 126.107C122.453 127.55 120.631 129.039 119.364 130.92C118.838 131.716 118.665 132.364 118.915 132.986C119.397 134.295 121.475 134.956 122.681 135.245C124.794 135.776 127.798 135.575 129.719 133.973C131.723 132.323 132.434 129.669 132.654 127.681C132.785 126.675 132.856 125.375 132.304 124.325C131.57 123.052 130.109 122.418 128.729 122.777C128.394 122.861 128.083 122.986 127.796 123.152Z" fill="#231F20"/>
<path d="M130.535 125.62C130.738 125.119 136.989 118.883 135.236 115.845C133.482 112.808 127.658 118.742 127.658 118.742C127.658 118.742 122.312 106.449 120.427 106.881C118.542 107.312 119.802 113.098 122.681 117.894C122.681 117.894 118.212 109.965 116.473 111.408C114.733 112.85 120.211 121.674 120.211 121.674C120.211 121.674 114.76 113.655 112.973 116.438C111.187 119.221 116.068 124.832 116.068 124.832C116.068 124.832 111.7 118.214 111.318 121.061C110.937 123.908 117.066 131.207 118.794 132.398C120.522 133.59 127.869 131.811 130.535 125.62Z" fill="white"/>
<path d="M125.681 131.433C124.778 131.954 123.868 132.37 122.888 132.662C121.073 133.217 119.439 133.23 118.643 132.705C116.785 131.478 110.568 124.122 111.001 121.08C111.11 120.415 111.414 120.185 111.667 120.148C112.002 120.064 112.461 120.292 112.951 120.666C112.286 119.134 111.955 117.519 112.714 116.369C112.965 115.951 113.458 115.666 113.987 115.634C115.133 115.629 116.632 116.898 117.902 118.245C116.485 115.506 115.118 112.19 116.313 111.226C116.577 111.019 116.911 110.936 117.235 111.022C118.135 111.159 119.27 112.365 120.281 113.643C119.317 111.025 118.918 108.628 119.442 107.45C119.587 107.037 119.95 106.718 120.39 106.628C122.317 106.173 126.348 114.956 127.821 118.265C128.845 117.291 131.99 114.49 134.108 114.745C134.749 114.813 135.303 115.204 135.57 115.762C137.135 118.471 133.169 123.169 131.461 125.14C131.204 125.453 130.947 125.765 130.906 125.789C129.752 128.152 127.938 130.129 125.681 131.433ZM111.764 120.695C111.681 120.742 111.606 120.895 111.577 121.13C111.166 123.831 117.248 131.047 118.929 132.157C119.459 132.507 120.783 132.619 122.638 132.04C123.888 131.647 128.191 130.093 130.187 125.492C130.362 125.227 130.579 124.938 130.818 124.69C132.287 122.967 136.234 118.334 134.884 115.994C134.67 115.625 134.293 115.35 133.863 115.27C131.681 114.997 127.794 118.883 127.777 118.948C127.636 119.084 127.466 119.073 127.33 118.932C127.306 118.891 127.283 118.85 127.283 118.85C124.77 113.076 121.426 106.906 120.381 107.181C120.152 107.258 119.971 107.418 119.878 107.636C119.302 109.008 120.154 112.949 122.365 116.873C122.602 117.283 122.791 117.612 122.862 117.735C122.957 117.899 122.905 118.093 122.741 118.188C122.577 118.283 122.382 118.231 122.288 118.067C122.145 117.82 121.979 117.533 121.837 117.287C120.635 115.299 118.303 111.829 117.014 111.588C116.885 111.553 116.738 111.583 116.574 111.678C115.502 112.57 118.183 117.973 120.392 121.515C120.487 121.679 120.411 121.832 120.247 121.927C120.124 121.998 119.953 121.987 119.858 121.823C118.787 120.252 115.588 116.133 113.889 116.129C113.572 116.148 113.284 116.314 113.15 116.555C112.24 118.012 113.338 120.388 114.445 122.211C115.066 123.002 115.687 123.793 116.249 124.673C116.321 124.796 116.31 124.966 116.169 125.102C116.07 125.214 115.834 125.186 115.763 125.063C115.101 124.296 114.522 123.481 113.983 122.643C113.019 121.447 112.098 120.611 111.722 120.718L111.764 120.695Z" fill="#231F20"/>
<path d="M207.13 109.64C207.033 109.094 202.338 101.625 204.795 99.0562C207.253 96.4878 211.5 103.559 211.5 103.559C211.5 103.559 219.454 92.7824 221.269 93.6503C223.083 94.5183 220.473 99.8565 216.552 103.872C216.552 103.872 222.689 97.1539 224.05 98.9411C225.41 100.728 218.058 108.092 218.058 108.092C218.058 108.092 225.161 101.529 226.303 104.646C227.446 107.763 221.38 112.14 221.38 112.14C221.38 112.14 227.106 106.7 226.872 109.517C226.637 112.334 218.979 118.124 217.007 118.88C215.035 119.635 208.335 116.279 207.13 109.64Z" fill="white"/>
<path d="M218.14 118.663C217.812 118.853 217.484 119.042 217.132 119.191C216.239 119.542 214.644 119.149 213.018 118.227C211.809 117.556 207.805 114.887 206.836 109.7C206.788 109.618 206.64 109.266 206.45 108.938C205.229 106.633 202.435 101.13 204.571 98.8572C205.01 98.3849 205.632 98.1352 206.232 98.2266C208.326 98.4407 210.764 101.905 211.533 103.048C213.696 100.157 219.629 92.517 221.403 93.4086C221.798 93.6185 222.076 94.0053 222.101 94.4285C222.324 95.668 221.44 97.9296 219.881 100.253C221.176 99.1772 222.524 98.2893 223.441 98.3617C223.782 98.3837 224.089 98.5352 224.296 98.7988C225.218 100.018 223.121 102.925 221.138 105.274C222.668 104.227 224.398 103.337 225.54 103.608C226.058 103.747 226.442 104.128 226.597 104.586C227.079 105.894 226.386 107.444 225.381 108.736C225.791 108.499 226.273 108.385 226.75 108.548C226.968 108.641 227.239 108.922 227.195 109.604C226.972 112.25 220.973 117.028 218.14 118.663ZM205.342 98.9596C205.218 99.0307 205.078 99.1666 204.979 99.2787C203.141 101.215 205.928 106.612 206.984 108.63C207.15 108.917 207.339 109.245 207.423 109.58C208.333 114.474 212.16 117.026 213.303 117.679C214.954 118.642 216.324 118.836 216.906 118.61C218.796 117.902 226.313 112.248 226.554 109.536C226.583 109.301 226.529 109.113 226.464 109.096C226.093 108.927 225.026 109.543 223.872 110.483C223.128 111.186 222.402 111.824 221.611 112.445C221.447 112.54 221.252 112.488 221.181 112.364C221.11 112.241 221.121 112.071 221.221 111.959C221.642 111.551 222.526 110.712 223.522 109.973C225.027 108.502 226.664 106.408 226.057 104.788C225.997 104.494 225.749 104.254 225.449 104.209C223.789 103.798 219.758 107.056 218.33 108.373C218.189 108.509 218.019 108.498 217.883 108.358C217.771 108.258 217.758 108.047 217.899 107.911C220.843 104.952 224.661 100.285 223.851 99.1653C223.779 99.0422 223.626 98.9664 223.456 98.9554C222.115 98.9085 219.076 101.703 217.438 103.415C217.239 103.639 217.04 103.864 216.8 104.112C216.659 104.248 216.489 104.237 216.377 104.137C216.241 103.997 216.252 103.826 216.351 103.714C216.451 103.602 216.691 103.354 217.03 102.994C220.037 99.6703 221.773 96.0409 221.514 94.5487C221.477 94.296 221.359 94.0908 221.141 93.9977C220.157 93.5259 215.565 98.7495 211.772 103.84C211.713 103.929 211.631 103.976 211.525 103.982C211.42 103.989 211.266 103.913 211.195 103.79C211.172 103.749 208.323 99.0992 206.1 98.8504C205.841 98.781 205.588 98.8174 205.342 98.9596Z" fill="#231F20"/>
<path d="M184.64 131.929C184.64 131.929 178.1 137.949 172.35 138.039L173.344 143.268C173.344 143.268 184.386 140.778 187.909 135.789L184.64 131.929Z" fill="#231F20"/>
<path d="M183.746 139.67C179.271 142.253 173.697 143.501 173.362 143.585C173.28 143.632 173.192 143.574 173.127 143.556C173.039 143.498 172.991 143.416 173.009 143.351L172.015 138.123C171.985 137.976 172.102 137.799 172.249 137.769L172.29 137.745C177.828 137.668 184.334 131.777 184.416 131.73C184.498 131.682 184.58 131.635 184.645 131.652C184.75 131.646 184.839 131.704 184.863 131.746L188.09 135.629C188.202 135.729 188.191 135.899 188.092 136.011C186.928 137.504 185.452 138.739 183.746 139.67ZM173.536 142.937C175.316 142.512 184.218 140.109 187.444 135.838L184.583 132.399C183.354 133.493 177.83 138.05 172.687 138.338L173.536 142.937Z" fill="#231F20"/>
<path d="M164.211 140.057C164.211 140.057 148.708 142.877 144.183 142.151L144.253 148.623C144.253 148.623 161.096 146.89 165.302 144.79L164.211 140.057Z" fill="#231F20"/>
<path d="M165.444 145.037C161.238 147.137 144.989 148.856 144.272 148.941C144.167 148.948 144.102 148.93 144.013 148.872C143.925 148.814 143.919 148.708 143.936 148.643L143.866 142.17C143.86 142.064 143.918 141.976 143.959 141.952C144.041 141.905 144.123 141.857 144.188 141.875C148.63 142.649 163.963 139.817 164.11 139.787C164.256 139.757 164.433 139.874 164.463 140.021L165.531 144.714C165.602 144.837 165.567 144.966 165.444 145.037ZM144.552 148.287C146.914 148.018 160.859 146.48 164.931 144.622L163.96 140.476C161.774 140.862 149.103 143.088 144.461 142.538L144.552 148.287Z" fill="#231F20"/>
<path d="M172.477 223.295C172.395 223.342 172.248 223.372 172.16 223.314C172.007 223.238 171.953 223.05 172.029 222.897C172.046 222.832 175.776 216.683 182.045 217.114C182.215 217.125 182.351 217.265 182.34 217.436C182.329 217.607 182.189 217.742 182.018 217.731C182.018 217.731 182.018 217.731 181.977 217.755C176.049 217.346 172.577 223.182 172.495 223.23C172.577 223.182 172.559 223.247 172.477 223.295Z" fill="#231F20"/>
<path d="M196.468 205.503C196.386 205.55 196.321 205.533 196.256 205.516C196.086 205.505 195.967 205.299 196.043 205.146C197.465 198.414 206.321 189.579 206.661 189.219C206.76 189.107 206.972 189.094 207.084 189.193C207.196 189.293 207.209 189.504 207.109 189.617L207.068 189.64C206.969 189.752 197.99 198.658 196.602 205.261C196.567 205.391 196.55 205.455 196.468 205.503Z" fill="#231F20"/>
<path d="M200.737 217.542C200.737 217.542 195.946 213.795 199.099 207.596C202.252 201.397 211.855 185.891 215.37 185.723C218.291 185.569 220.206 187.747 220.729 190.455C221.253 193.163 220.801 195.888 219.848 198.408C217.942 203.449 214.518 208.327 210.891 212.282C209.152 214.106 203.763 219.845 200.737 217.542Z" fill="#231F20"/>
<path d="M205.381 217.433C203.369 218.595 201.741 218.714 200.538 217.766C200.337 217.609 195.54 213.755 198.793 207.444C201.853 201.463 211.583 185.61 215.286 185.388C218.101 185.24 220.321 187.188 220.958 190.378C221.445 192.833 221.146 195.633 220.024 198.525C218.281 203.089 215.075 208.06 210.968 212.511C208.879 214.866 207.023 216.485 205.381 217.433ZM200.953 217.253C202.245 218.259 204.978 218.158 210.601 212.066C214.65 207.703 217.839 202.797 219.5 198.28C220.541 195.818 220.823 193.083 220.371 190.498C219.817 187.643 217.822 185.894 215.324 186.023C212.256 186.207 203.124 200.346 199.341 207.73C196.357 213.558 200.711 217.119 200.953 217.253Z" fill="#231F20"/>
<path d="M141.683 110.043C141.683 110.043 142.913 103.641 143.426 104.056C143.939 104.471 168.826 97.711 169.047 97.1456C169.267 96.5802 173.812 100.47 173.812 100.47C173.812 100.47 162.473 116.759 141.683 110.043Z" fill="white"/>
<path d="M165.357 108.198C159.856 111.373 151.817 113.661 141.573 110.326C141.419 110.25 141.348 110.127 141.359 109.957C142.141 106.002 142.738 103.907 143.236 103.728C143.319 103.681 143.448 103.715 143.513 103.733C145.065 103.767 167.239 97.8064 168.758 96.9295C168.816 96.8411 168.898 96.7937 168.98 96.7463C169.609 96.6024 172.04 98.5376 173.987 100.205C174.099 100.304 174.153 100.492 174.054 100.604C171.692 103.719 168.746 106.295 165.357 108.198ZM142.053 109.83C160.863 115.773 171.892 102.454 173.413 100.536C171.713 99.1094 169.795 97.5893 169.254 97.4094C168.99 97.6164 168.016 98.0146 164.217 99.1133C164.029 99.1671 145.95 104.351 143.551 104.367C143.153 104.816 142.5 107.382 142.053 109.83ZM143.251 104.322C143.316 104.339 143.38 104.356 143.445 104.374C143.38 104.356 143.275 104.363 143.251 104.322Z" fill="#231F20"/>
<path d="M135.024 139.558C134.942 139.605 134.877 139.588 134.771 139.594C134.577 139.542 134.482 139.378 134.558 139.225C135.657 135.251 135.277 131.749 133.495 128.946C132.719 127.698 131.639 126.679 130.424 125.903C130.271 125.827 130.217 125.639 130.293 125.486C130.369 125.333 130.557 125.279 130.71 125.355C130.774 125.372 137.959 129.379 135.205 139.398C135.147 139.486 135.106 139.51 135.024 139.558Z" fill="#231F20"/>
<path d="M127.658 118.742C127.658 118.742 123.472 120.119 123.731 125.498L127.658 118.742Z" fill="white"/>
<path d="M123.874 125.744C123.833 125.768 123.792 125.791 123.727 125.774C123.556 125.763 123.42 125.622 123.39 125.476C123.142 119.927 127.469 118.414 127.51 118.39C127.698 118.336 127.851 118.412 127.904 118.6C127.958 118.788 127.882 118.941 127.695 118.995C127.507 119.049 123.744 120.4 123.984 125.461C124.055 125.584 123.956 125.696 123.874 125.744Z" fill="#231F20"/>
<path d="M211.5 103.559C211.5 103.559 215.41 105.023 213.538 110.976L211.5 103.559Z" fill="white"/>
<path d="M213.704 111.263C213.622 111.31 213.516 111.317 213.451 111.299C213.257 111.247 213.162 111.083 213.238 110.93C214.983 105.325 211.437 103.924 211.372 103.907C211.219 103.831 211.165 103.643 211.241 103.49C211.317 103.336 211.464 103.306 211.593 103.341C211.658 103.358 215.769 104.981 213.844 111.127C213.803 111.151 213.745 111.239 213.704 111.263Z" fill="#231F20"/>
<path d="M173.441 136.042L162.407 139.019L163.603 146.209L174.922 143.725L173.441 136.042Z" fill="#231F20"/>
<path d="M175.087 144.012C175.046 144.036 175.046 144.036 175.005 144.06L163.663 146.503C163.516 146.533 163.339 146.416 163.309 146.27C163.309 146.27 163.309 146.27 163.286 146.229L162.09 139.038C162.059 138.891 162.176 138.714 162.323 138.684L173.374 135.642C173.457 135.595 173.545 135.653 173.61 135.67C173.698 135.729 173.746 135.811 173.728 135.876L175.191 143.624C175.245 143.812 175.21 143.941 175.087 144.012ZM163.837 145.856L174.55 143.556L173.19 136.46L162.761 139.252L163.837 145.856Z" fill="#231F20"/>
<path d="M169.172 159.742C169.172 159.742 175.351 162.196 179.895 156.89L169.172 159.742Z" fill="white"/>
<path d="M177.472 159.329C173.367 161.699 169.086 160.066 169.021 160.049C168.868 159.973 168.773 159.809 168.849 159.656C168.924 159.502 169.089 159.408 169.242 159.483C169.501 159.553 175.26 161.755 179.63 156.715C179.729 156.603 179.941 156.59 180.053 156.689C180.165 156.789 180.178 157.001 180.078 157.113C179.389 158.004 178.498 158.737 177.472 159.329Z" fill="#231F20"/>
<path d="M165.167 192.431C163.384 193.515 161.406 194.165 159.331 194.268C157.703 194.387 156.084 193.953 154.716 193.101C154.604 193.002 154.551 192.814 154.667 192.637C154.784 192.46 154.955 192.471 155.132 192.588C155.397 192.763 161.519 197.11 170.582 187.116C170.681 187.004 170.893 186.991 171.005 187.09C171.117 187.19 171.13 187.402 171.03 187.514C169.322 189.485 167.36 191.111 165.167 192.431Z" fill="#D1D3D4"/>
<path d="M204.059 160.728C203.977 160.775 203.912 160.758 203.847 160.74C191.412 158.068 187.19 168.387 187.004 168.823C186.993 168.993 186.787 169.112 186.658 169.077C186.528 169.042 186.369 168.861 186.404 168.731C186.421 168.667 186.421 168.667 186.462 168.643C186.497 168.514 191.009 157.37 204.003 160.157C204.174 160.168 204.292 160.374 204.217 160.527C204.199 160.592 204.117 160.639 204.059 160.728Z" fill="#D1D3D4"/>
<path d="M196.705 108.27C196.705 108.27 191.602 109.574 192.351 116.749L196.705 108.27Z" fill="white"/>
<path d="M192.517 117.037C192.476 117.06 192.435 117.084 192.37 117.067C192.199 117.056 192.046 116.98 192.034 116.768C191.231 109.405 196.58 107.959 196.621 107.935C196.809 107.881 196.986 107.998 197.016 108.145C197.046 108.292 196.953 108.51 196.806 108.54C196.618 108.593 191.962 109.913 192.709 116.707C192.675 116.836 192.64 116.966 192.517 117.037Z" fill="#231F20"/>
<path d="M139.982 140.088C139.982 140.088 146.038 133.418 148.239 130.121L139.982 140.088Z" fill="white"/>
<path d="M140.148 140.376C140.025 140.447 139.896 140.412 139.783 140.313C139.671 140.213 139.659 140.002 139.758 139.89C139.816 139.801 145.854 133.195 147.974 129.946C148.074 129.834 148.285 129.821 148.397 129.921C148.509 130.02 148.54 130.167 148.464 130.32C146.327 133.634 140.405 140.063 140.189 140.352C140.189 140.352 140.189 140.352 140.148 140.376Z" fill="#231F20"/>
<path d="M183.696 128.588C183.655 128.611 183.655 128.611 183.614 128.635C183.426 128.689 183.249 128.572 183.219 128.425L178.643 109.502C178.59 109.315 178.706 109.138 178.853 109.108C179 109.078 179.177 109.194 179.207 109.341L183.783 128.264C183.854 128.387 183.819 128.517 183.696 128.588Z" fill="#231F20"/>
<path d="M170.497 84.8695C170.598 85.1395 170.717 85.3447 170.794 85.5737C171.27 86.7768 171.452 88.0401 171.317 89.3224C171.175 90.4989 170.477 92.3245 169.186 92.7418C168.082 93.1054 167.19 92.0335 166.51 91.331C164.123 88.7135 162.938 85.2383 163.322 81.7325C163.502 79.768 164.79 78.5864 166.647 79.8128C168.304 80.8813 169.683 82.9859 170.497 84.8695Z" fill="white"/>
<path d="M169.704 92.8801C169.58 92.9512 169.416 93.046 169.269 93.076C168.06 93.4459 167.133 92.5035 166.43 91.7599L166.27 91.5784C163.819 88.9436 162.627 85.3625 163.005 81.751C163.123 80.5334 163.618 79.5905 164.404 79.246C164.88 79.0264 165.679 78.8935 166.805 79.6116C168.308 80.6044 169.828 82.5731 170.791 84.8088C170.892 85.0788 171.01 85.2841 171.088 85.513C171.587 86.7572 171.752 88.0852 171.599 89.4322C171.503 90.3087 170.935 92.1691 169.704 92.8801ZM164.63 79.8271C164.097 80.1352 163.735 80.8364 163.646 81.8187C163.255 85.2186 164.376 88.6766 166.692 91.1708L166.851 91.3524C167.507 92.0138 168.21 92.7574 169.043 92.495C170.188 92.1077 170.827 90.3705 170.934 89.3235C171.052 88.1059 170.87 86.8427 170.442 85.7217C170.364 85.4927 170.287 85.2638 170.145 85.0175C169.23 82.8638 167.846 81.0356 166.39 80.125C165.706 79.6988 165.106 79.6074 164.63 79.8271Z" fill="#231F20"/>
<path d="M170.001 89.6985C170.923 98.6897 164.333 106.709 155.341 107.631C146.35 108.553 138.331 101.963 137.409 92.9714C136.487 83.9802 143.077 75.9609 152.068 75.0389C156.735 74.589 161.392 76.1145 164.834 79.3269C165.554 80.0057 166.192 80.7319 166.79 81.4818C168.611 83.8783 169.735 86.6777 170.001 89.6985Z" fill="white"/>
<path d="M162.047 105.784C154.043 110.406 143.853 107.641 139.232 99.6362C134.61 91.6316 137.375 81.4422 145.38 76.8207C151.702 73.1709 159.678 74.0937 165.05 79.0378C165.77 79.7166 166.432 80.4838 167.053 81.2747C172.613 88.6285 171.119 99.1239 163.741 104.642C163.238 105.097 162.622 105.453 162.047 105.784ZM145.712 77.3954C145.137 77.7272 144.586 78.1 144.076 78.4492C141.334 80.525 139.318 83.3854 138.345 86.6293C136.856 91.5392 137.791 96.8559 140.86 100.94C146.213 108.03 156.278 109.443 163.369 104.091C167.881 100.72 170.249 95.2474 169.677 89.6117C169.376 86.7204 168.294 83.8973 166.52 81.5828C165.963 80.8093 165.284 80.1068 164.588 79.469C159.463 74.7649 151.787 73.8878 145.712 77.3954Z" fill="#231F20"/>
<path d="M152.131 96.9506L153.14 103.155C153.14 103.155 155.807 106.541 159.432 104.667C161.614 103.517 163.104 101.452 163.575 99.0456L160.933 87.9279C160.933 87.9279 157.736 87.0367 157.09 80.5135C157.09 80.5135 152.42 84.0854 146.573 84.67C146.573 84.67 147.368 91.5453 148.521 94.4915C149.675 97.4378 152.131 96.9506 152.131 96.9506Z" fill="white"/>
<path d="M159.926 104.765C159.803 104.836 159.68 104.907 159.557 104.978C155.744 106.906 152.9 103.403 152.877 103.362C152.853 103.32 152.829 103.279 152.806 103.238L151.856 97.328C151.092 97.3314 149.21 97.1046 148.211 94.6163C147.057 91.67 146.275 85.0063 146.215 84.7126C146.208 84.6068 146.226 84.5421 146.284 84.4536C146.343 84.3652 146.425 84.3178 146.489 84.3351C152.19 83.7806 156.801 80.2972 156.842 80.2735C156.924 80.2261 157.071 80.196 157.16 80.2544C157.289 80.2891 157.36 80.4123 157.367 80.5181C157.994 86.7238 160.938 87.6514 160.962 87.6925C161.091 87.7272 161.138 87.8093 161.21 87.9324L163.852 99.0502C163.876 99.0912 163.858 99.156 163.858 99.156C163.404 101.498 161.955 103.539 159.926 104.765ZM153.451 103.03C153.818 103.475 156.198 105.987 159.266 104.38C161.325 103.3 162.757 101.324 163.258 99.0646L160.693 88.1758C159.975 87.8791 157.534 86.4966 156.869 81.0788C155.586 81.9841 151.716 84.3824 146.951 84.9445C147.139 86.3136 147.851 91.8134 148.874 94.3429C149.926 97.0191 152.047 96.6158 152.112 96.6331C152.218 96.6268 152.282 96.6441 152.371 96.7025C152.459 96.7609 152.507 96.843 152.489 96.9078L153.451 103.03Z" fill="#231F20"/>
<path d="M152.857 87.1171C152.857 87.1171 151.857 90.9784 152.558 91.3398C153.26 91.7011 154.485 90.8843 154.485 90.8843" fill="white"/>
<path d="M154.446 91.2904C154.035 91.5274 153.043 91.9904 152.407 91.6464C151.658 91.2029 152.158 88.5609 152.598 87.0479C152.65 86.8537 152.814 86.7589 152.968 86.8346C153.162 86.8867 153.257 87.0509 153.181 87.2041C152.719 89.0581 152.509 90.8757 152.716 91.1394C153.111 91.3493 153.956 90.9163 154.302 90.662C154.466 90.5672 154.636 90.5782 154.731 90.7424C154.826 90.9066 154.774 91.1008 154.651 91.1719L154.446 91.2904Z" fill="#231F20"/>
<path d="M155.785 93.8007C155.58 93.9192 155.31 94.0203 155.081 94.0978C153.308 94.6289 151.569 93.6078 151.481 93.5494C151.327 93.4736 151.274 93.2857 151.391 93.1088C151.466 92.9556 151.654 92.9019 151.831 93.0187C151.831 93.0187 153.417 93.9641 154.896 93.493C155.771 93.2069 156.515 92.504 157.021 91.3905C157.097 91.2373 157.285 91.1836 157.438 91.2593C157.591 91.3351 157.645 91.523 157.569 91.6762C157.197 92.548 156.606 93.3267 155.785 93.8007Z" fill="#231F20"/>
<path d="M155.506 85.6841C155.359 85.209 155.078 84.8741 154.878 84.936C154.678 84.998 154.635 85.4334 154.782 85.9085C154.929 86.3836 155.211 86.7186 155.411 86.6566C155.611 86.5946 155.654 86.1593 155.506 85.6841Z" fill="#231F20"/>
<path d="M150.498 86.8948C150.35 86.4197 150.069 86.0848 149.869 86.1467C149.669 86.2087 149.626 86.6441 149.773 87.1192C149.92 87.5943 150.202 87.9293 150.402 87.8673C150.602 87.8053 150.645 87.3699 150.498 86.8948Z" fill="#231F20"/>
<path d="M160.174 83.7687C159.295 81.8677 158.076 79.9448 155.956 79.3075C153.166 78.4556 148.236 79.1126 146.684 81.9239C146.492 82.254 146.364 82.6014 146.26 82.9899C146.087 83.6374 145.954 84.2612 145.951 84.9197C145.732 87.2901 145.937 89.635 146.541 91.9135C147.246 94.462 147.923 97.2457 150.246 98.8052C151.709 99.8216 153.438 99.9727 155.142 99.7005C155.941 99.5676 156.621 99.2295 157.396 99.0555C158.465 98.8215 159.506 98.8227 160.562 98.3771C161.807 97.8777 162.686 97.3152 162.897 95.8797C163.017 95.0443 162.966 94.1979 162.768 93.3816C162.107 90.1509 161.675 86.8428 160.174 83.7687ZM149.075 94.5008C148.417 93.4573 148.194 92.2177 148.036 90.9955L147.496 87.3116C147.406 86.8711 147.381 86.4479 147.502 85.9946C147.745 85.0881 148.786 85.0894 149.578 84.8507C150.894 84.4744 152.215 84.204 153.584 84.0156C154.301 83.9301 155.647 83.7007 156.272 84.2153C157.57 85.3266 157.78 87.3952 158.192 88.9631C158.753 90.8831 158.809 92.876 158.265 94.7774C157.767 96.3788 155.629 96.8469 154.141 96.83C152.718 96.8305 151.311 96.384 150.179 95.5601C149.695 95.2918 149.353 94.8876 149.075 94.5008Z" fill="#231F20"/>
<path d="M170.001 89.6984C170.923 98.6896 164.398 106.726 155.406 107.648C147.978 108.434 140.962 104.056 138.356 97.0767C140.291 98.532 148.872 101.733 158.734 98.3382C165.661 95.9263 167.487 92.7374 170.001 89.6984Z" fill="white"/>
<path d="M162.047 105.784C154.084 110.382 143.853 107.641 139.256 99.6772C138.805 98.8972 138.413 98.0289 138.086 97.1778C138.015 97.0547 138.091 96.9015 138.214 96.8304C138.337 96.7593 138.484 96.7292 138.596 96.8287C140.596 98.3013 149.04 101.362 158.674 98.0445C164.685 95.9423 166.737 93.3345 168.929 90.5909C169.204 90.2134 169.502 89.8769 169.818 89.4757C169.876 89.3873 170.023 89.3572 170.153 89.3919C170.282 89.4266 170.353 89.5498 170.359 89.6556C171.006 96.1787 167.777 102.531 162.047 105.784ZM139.059 97.8202C142.646 105.929 152.105 109.609 160.214 106.022C166.317 103.319 170.128 97.1233 169.793 90.4753L169.419 90.965C167.267 93.6849 165.034 96.4523 158.876 98.5845C149.994 101.687 142.024 99.4473 139.059 97.8202Z" fill="#231F20"/>
<path d="M164.834 79.3269C161.015 78.6854 155.875 78.3144 151.59 79.8033C146.782 81.4297 142.206 83.743 138.027 86.6484C140.629 77.9766 149.784 73.0736 158.48 75.7159C160.835 76.3815 163.033 77.6299 164.834 79.3269Z" fill="white"/>
<path d="M165 79.614C164.918 79.6614 164.853 79.644 164.788 79.6267C161.164 79.0372 155.977 78.5841 151.691 80.073C146.883 81.6995 142.349 83.9891 138.211 86.8707C138.088 86.9418 137.982 86.9482 137.829 86.8724C137.717 86.773 137.645 86.6498 137.68 86.5203C140.357 77.6953 149.677 72.6976 158.478 75.3335C160.922 76.0575 163.144 77.3469 165.009 79.0613C165.121 79.1607 165.151 79.3076 165.052 79.4197C165.099 79.5018 165.058 79.5255 165 79.614ZM141.585 83.9925C144.745 82.1676 148.055 80.6948 151.465 79.492C155.481 78.1042 160.208 78.3301 163.785 78.8374C156.888 73.2416 146.78 74.3155 141.184 81.2134C140.056 82.5765 139.192 84.1148 138.571 85.7873C139.573 85.1538 140.599 84.5613 141.585 83.9925Z" fill="#231F20"/>
<path d="M140.412 92.7698C140.286 92.0766 140.118 91.4071 139.91 90.7613C139.617 89.7808 139.136 87.4312 138.029 87.0305C137.27 86.7575 136.837 87.3356 136.687 88.0242C135.96 91.1258 136.568 94.1686 137.533 97.1686C137.79 97.8965 138.539 99.7628 139.567 99.5524C140.823 99.2646 140.788 96.5485 140.754 95.6374C140.697 94.6852 140.575 93.7157 140.412 92.7698Z" fill="white"/>
<path d="M139.979 99.6974C139.856 99.7685 139.774 99.8159 139.627 99.846C138.264 100.14 137.431 97.9391 137.24 97.2285C136.375 94.4985 135.567 91.2979 136.405 87.9136C136.502 87.4193 136.777 87.0418 137.164 86.7637C137.451 86.5978 137.833 86.5961 138.181 86.7239C139.288 87.1247 139.802 88.9626 140.107 90.1547C140.161 90.3426 140.191 90.4895 140.262 90.6126C140.47 91.2584 140.638 91.9279 140.765 92.6211C140.951 93.608 141.073 94.5776 141.13 95.5297C141.135 96.6762 141.087 99.0575 139.979 99.6974ZM137.39 87.3448C137.167 87.528 136.992 87.7934 136.946 88.0934C136.185 91.3245 136.945 94.4431 137.78 97.0263C138.167 98.171 138.831 99.3204 139.483 99.2175C140.258 99.0436 140.515 97.308 140.413 95.6152C140.356 94.6631 140.234 93.6935 140.03 92.7714C139.927 92.1192 139.719 91.4734 139.551 90.8039C139.521 90.6571 139.491 90.5102 139.437 90.3223C139.169 89.3828 138.678 87.586 137.895 87.272C137.725 87.261 137.554 87.25 137.39 87.3448Z" fill="#231F20"/>
<path d="M156.185 133.361C156.185 133.361 157.102 151.824 150.964 157.119C144.826 162.414 138.435 159.591 139.033 155.414C139.632 151.237 143.672 148.85 143.672 148.85C143.672 148.85 144.118 148.483 143.644 147.662L142.933 146.431C142.933 146.431 136.081 151.153 136.45 156.249C136.809 161.515 143.559 164.295 149.716 160.74C161.662 153.843 158.651 132.703 158.651 132.703" fill="black"/>
<path d="M150.214 118.089L154.351 134.639L177.271 128.74L172.879 111.463L150.214 118.089Z" fill="white"/>
<path d="M177.413 128.986C177.372 129.01 177.372 129.01 177.331 129.033L154.452 134.909C154.369 134.956 154.281 134.898 154.216 134.88C154.128 134.822 154.104 134.781 154.057 134.699L149.944 118.19C149.914 118.044 149.99 117.89 150.154 117.796L172.819 111.169C172.901 111.121 172.989 111.18 173.054 111.197C173.142 111.255 173.166 111.296 173.213 111.379L177.541 128.639C177.571 128.785 177.536 128.915 177.413 128.986ZM154.56 134.244L176.853 128.489L172.604 111.84L150.544 118.282L154.56 134.244Z" fill="#231F20"/>
<path d="M160.546 126.41C162.45 125.31 163.103 122.875 162.003 120.971C160.904 119.066 158.469 118.414 156.564 119.513C154.66 120.613 154.008 123.048 155.107 124.952C156.207 126.857 158.642 127.509 160.546 126.41Z" fill="black"/>
<path d="M170.873 120.502C171.825 119.952 172.152 118.735 171.602 117.783C171.052 116.83 169.834 116.504 168.882 117.054C167.93 117.604 167.604 118.821 168.154 119.773C168.703 120.726 169.921 121.052 170.873 120.502Z" fill="black"/>
<path d="M173.135 126.695L173.053 126.742L162.265 129.577C162.077 129.631 161.924 129.555 161.87 129.367C161.817 129.179 161.892 129.026 162.08 128.972L162.121 128.948L172.885 126.072C173.073 126.019 173.226 126.094 173.28 126.282C173.358 126.511 173.323 126.641 173.135 126.695Z" fill="#D1D3D4"/>
<path d="M189.294 127.381C189.294 127.381 190.412 126.188 190.987 127.279C191.562 128.37 193.983 137.208 193.983 137.208L191.355 138.725L189.294 127.381Z" fill="black"/>
<path d="M130.471 95.5537C130.471 95.5537 129.97 93.9273 130.627 93.5481C131.284 93.1689 135.117 91.9407 135.117 91.9407L135.639 94.2666L130.471 95.5537Z" fill="black"/>
<path d="M175.682 142.957C175.641 142.981 175.641 142.981 175.6 143.004C175.454 143.034 175.277 142.918 175.247 142.771L174.166 137.866C174.136 137.72 174.253 137.543 174.4 137.513C174.547 137.483 174.724 137.599 174.754 137.746L175.834 142.651C175.864 142.797 175.806 142.886 175.682 142.957Z" fill="white"/>
<path d="M162.971 145.589C162.93 145.613 162.889 145.636 162.866 145.595C162.719 145.625 162.542 145.509 162.512 145.362L161.838 140.497C161.808 140.35 161.924 140.173 162.112 140.119C162.259 140.089 162.436 140.206 162.49 140.394L163.164 145.259C163.129 145.388 163.095 145.518 162.971 145.589Z" fill="white"/>
<path d="M94.1644 146.619L97.2005 149.792L101.416 148.562L98.267 151.639L99.4733 155.814L96.4198 152.705L92.2213 153.871L95.3533 150.858L94.1644 146.619Z" fill="#D1D3D4"/>
<path d="M229.987 171.318L232.385 173.765L235.726 172.822L233.238 175.243L234.158 178.543L231.801 176.073L228.46 177.016L230.948 174.595L229.987 171.318Z" fill="#D1D3D4"/>
<path d="M195.918 79.2238L197.116 80.4472L198.766 79.9872L197.543 81.1861L198.003 82.8362L196.804 81.6127L195.154 82.0728L196.378 80.8738L195.918 79.2238Z" fill="#D1D3D4"/>
<path d="M117.606 223.339L118.805 224.563L120.496 224.079L119.232 225.302L119.692 226.952L118.534 225.705L116.843 226.188L118.107 224.966L117.606 223.339Z" fill="#D1D3D4"/>
<path d="M66.4187 148.9L67.6414 150.164L69.2914 149.704L68.0443 150.862L68.528 152.553L67.3054 151.289L65.679 151.79L66.9025 150.591L66.4187 148.9Z" fill="#D1D3D4"/>
<path d="M105.273 131.448L106.656 132.894L108.576 132.332L107.153 133.756L107.715 135.676L106.291 134.253L104.348 134.773L105.794 133.391L105.273 131.448Z" fill="#D1D3D4"/>
<path d="M217.271 136.023L218.653 137.469L220.638 136.925L219.151 138.331L219.712 140.251L218.33 138.805L216.41 139.366L217.832 137.943L217.271 136.023Z" fill="#D1D3D4"/>
<path d="M124.984 178.843C119.523 167.614 105.992 162.938 94.7627 168.399C83.5331 173.86 78.8569 187.391 84.3182 198.621C89.7795 209.85 103.31 214.526 114.54 209.065C125.77 203.604 130.446 190.073 124.984 178.843Z" fill="white"/>
<path d="M116.147 208.583C105.187 214.91 91.1598 211.187 84.8319 200.226C78.504 189.266 82.2278 175.239 93.188 168.911C101.932 163.863 112.943 165.113 120.299 171.977C129.545 180.596 130.056 195.133 121.414 204.338C119.881 206.044 118.117 207.445 116.147 208.583ZM93.5372 169.421C82.8643 175.583 79.2446 189.222 85.4476 199.871C91.6507 210.52 105.248 214.164 115.897 207.96C117.786 206.87 119.467 205.516 120.965 203.94C129.344 194.943 128.882 180.87 119.902 172.426C112.729 165.785 102.017 164.58 93.5372 169.421Z" fill="#D1D3D4"/>
<path d="M94.65 212.018C88.1642 215.762 83.1823 216.613 80.7734 214.337C78.0281 211.762 79.0826 205.626 83.6499 197.515C83.7257 197.362 83.9136 197.308 84.0668 197.384C84.22 197.46 84.2737 197.648 84.198 197.801C79.7995 205.54 78.7149 211.53 81.2123 213.865C83.7096 216.199 89.6056 214.656 97.0211 209.773C102.168 206.364 107.58 201.707 112.729 196.216C117.878 190.725 122.145 185.033 125.178 179.669C129.536 171.954 130.661 165.94 128.164 163.605C125.667 161.27 119.771 162.814 112.355 167.697C112.191 167.792 112.02 167.781 111.926 167.617C111.831 167.452 111.883 167.258 112.006 167.187C119.832 162.067 125.881 160.599 128.627 163.174C131.372 165.749 130.317 171.885 125.774 180.037C122.723 185.465 118.374 191.205 113.249 196.737C108.099 202.227 102.629 206.973 97.4414 210.406C96.4325 210.934 95.5121 211.52 94.65 212.018Z" fill="#D1D3D4"/>
<path d="M85.2916 185.949C85.2095 185.997 85.1448 185.979 85.1037 186.003C84.9332 185.992 84.8384 185.828 84.8494 185.657C85.0212 184.628 85.2814 183.656 85.7122 182.696C85.788 182.543 85.9522 182.448 86.1054 182.524C86.2586 182.6 86.3534 182.764 86.2776 182.917C85.8642 183.813 85.5802 184.743 85.4905 185.725C85.4321 185.813 85.3737 185.902 85.2916 185.949Z" fill="#D1D3D4"/>
<path d="M87.8685 190.318L87.7864 190.365C87.5985 190.419 87.4216 190.302 87.3915 190.155C87.1465 189.257 87.0719 188.369 87.209 187.469C87.22 187.299 87.3605 187.163 87.5548 187.215C87.7253 187.226 87.8201 187.39 87.8091 187.561C87.6894 188.396 87.7812 189.219 87.9789 190.035C88.0263 190.117 87.9916 190.247 87.8685 190.318Z" fill="#D1D3D4"/>
<path d="M86.0935 194.353C86.0524 194.377 86.0524 194.377 86.0114 194.401C85.8645 194.431 85.6876 194.314 85.6576 194.167L85.3207 192.446C85.2669 192.258 85.3427 192.105 85.5306 192.051C85.7185 191.997 85.8717 192.073 85.9254 192.261L85.9491 192.302L86.286 194.023C86.2513 194.153 86.1756 194.306 86.0935 194.353Z" fill="#D1D3D4"/>
<path d="M254.442 164.095C262.468 159.462 265.217 149.199 260.584 141.174C255.95 133.148 245.688 130.399 237.662 135.032C229.637 139.666 226.887 149.928 231.521 157.953C236.154 165.979 246.416 168.729 254.442 164.095Z" fill="white"/>
<path d="M254.584 164.341C246.415 169.058 235.926 166.247 231.21 158.078C226.493 149.909 229.304 139.42 237.473 134.704C245.642 129.987 256.131 132.798 260.847 140.967C265.587 149.177 262.794 159.601 254.584 164.341ZM237.805 135.278C229.923 139.829 227.216 149.93 231.767 157.811C236.317 165.693 246.418 168.399 254.3 163.849C262.181 159.298 264.888 149.197 260.337 141.316C255.787 133.434 245.686 130.728 237.805 135.278Z" fill="#D1D3D4"/>
<path d="M258.004 142.773C257.963 142.797 257.922 142.82 257.857 142.803C257.686 142.792 257.551 142.651 257.521 142.505C257.517 141.74 257.155 141.019 256.636 140.498C256.5 140.357 256.511 140.187 256.61 140.075C256.751 139.939 256.921 139.95 257.033 140.049C257.73 140.687 258.122 141.555 258.114 142.49C258.162 142.572 258.127 142.702 258.004 142.773Z" fill="#D1D3D4"/>
<path d="M260.02 146.644L259.938 146.691C259.791 146.721 259.614 146.605 259.584 146.458C259.44 145.829 259.255 145.225 258.964 144.626C258.869 144.462 258.945 144.309 259.109 144.214C259.274 144.119 259.427 144.195 259.522 144.359C259.836 144.999 260.068 145.685 260.236 146.355C260.201 146.484 260.143 146.573 260.02 146.644Z" fill="#D1D3D4"/>
<path d="M257.941 149.869C257.9 149.893 257.859 149.917 257.794 149.899C257.624 149.888 257.488 149.748 257.499 149.577C257.519 148.854 257.475 148.114 257.325 147.379C257.294 147.232 257.411 147.056 257.599 147.002C257.746 146.972 257.923 147.089 257.977 147.276C258.086 148.034 258.154 148.816 258.157 149.58C258.123 149.71 258.064 149.798 257.941 149.869Z" fill="#D1D3D4"/>
<path d="M146.399 226.474C149.891 224.458 151.087 219.994 149.071 216.502C147.055 213.011 142.591 211.815 139.1 213.83C135.608 215.846 134.412 220.311 136.428 223.802C138.444 227.293 142.908 228.489 146.399 226.474Z" fill="white"/>
<path d="M146.541 226.72C142.888 228.829 138.226 227.58 136.117 223.927C134.007 220.273 135.257 215.611 138.91 213.502C142.563 211.393 147.225 212.642 149.335 216.295C151.403 219.972 150.154 224.634 146.541 226.72ZM139.242 214.077C135.876 216.02 134.731 220.293 136.674 223.66C138.617 227.026 142.891 228.171 146.257 226.227C149.623 224.284 150.768 220.01 148.825 216.644C146.84 213.302 142.567 212.157 139.242 214.077Z" fill="#D1D3D4"/>
</g>
<defs>
<clipPath id="clip0_33_682">
<rect width="237" height="237" fill="white" transform="translate(0.625977 119.126) rotate(-30)"/>
</clipPath>
</defs>
</svg>
