<svg width="906" height="906" viewBox="0 0 906 906" fill="none" xmlns="http://www.w3.org/2000/svg">
<path d="M128.471 519.319C128.471 520.588 127.021 541.788 126.659 553.204C126.297 564.619 127.565 572.592 131.551 579.478C135.538 586.363 159.456 591.256 167.067 593.611C174.677 595.967 489.603 637.099 489.603 637.099C489.603 637.099 494.495 661.561 535.99 667.36C577.485 673.158 627.496 641.086 655.944 624.597C684.393 608.107 763.396 542.875 769.919 530.373C776.442 517.87 773.724 461.879 773.724 461.879C773.724 461.879 291.732 479.093 272.706 481.63C253.68 484.166 128.471 519.319 128.471 519.319Z" fill="#D1D3D4"/>
<path d="M546.318 669.353C542.694 669.353 539.251 669.172 535.627 668.628C497.757 663.192 489.784 642.898 488.515 638.186C466.771 635.287 173.952 596.873 166.704 594.698C165.436 594.336 163.443 593.792 161.268 593.249C147.316 589.625 133.545 585.82 130.464 580.021C126.478 572.954 125.028 564.982 125.391 553.022C125.753 545.774 126.297 534.54 126.84 527.292C127.021 523.306 127.203 519.863 127.203 519.319C127.203 518.776 127.565 518.232 128.109 518.051C133.182 516.601 253.318 482.898 272.163 480.18C291.007 477.462 753.611 461.154 773.181 460.429C773.905 460.429 774.449 460.973 774.449 461.516C774.63 463.872 777.167 518.051 770.644 530.735C764.121 543.419 684.936 608.651 656.125 625.502L648.696 629.851C621.879 645.978 582.196 669.353 546.318 669.353ZM129.558 520.406C129.558 521.675 129.377 523.849 129.196 527.473C128.833 534.902 128.109 545.956 127.746 553.204C127.384 564.619 128.652 572.23 132.457 578.934C135.357 584.189 152.571 588.538 161.812 590.893C163.986 591.437 165.979 591.98 167.248 592.343C174.496 594.517 486.522 635.287 489.603 635.831C490.146 635.831 490.509 636.374 490.69 636.737C490.69 636.918 495.945 660.293 535.99 666.091C573.679 671.527 618.073 645.253 647.609 627.858L655.038 623.509C683.487 607.02 761.946 542.15 768.469 529.829C774.268 518.776 772.456 471.482 772.093 463.147C744.732 464.053 290.826 480.361 272.344 482.898C254.586 485.435 140.974 517.145 129.558 520.406Z" fill="#231F20"/>
<path d="M451.188 413.136C451.188 413.136 423.102 411.686 397.553 418.753C372.004 425.82 140.249 505.729 133.182 511.89C126.116 518.051 124.485 529.466 146.41 530.372C168.335 531.278 503.736 577.847 503.736 577.847C503.736 577.847 506.454 603.94 544.144 604.121C581.834 604.302 661.018 550.667 710.123 516.42C759.228 482.173 777.711 469.852 772.456 454.993C767.201 440.135 729.33 421.652 694.359 440.135L451.188 413.136Z" fill="white"/>
<path d="M544.325 605.208H544.144C524.212 605.208 513.884 597.779 508.81 591.618C505.73 587.994 503.555 583.645 502.649 578.934C482.898 576.216 167.248 532.547 146.229 531.641C133.001 531.097 128.834 526.93 127.565 523.306C126.116 519.5 127.928 514.608 132.276 510.803C139.706 504.28 372.548 424.189 397.191 417.485C422.559 410.418 450.826 411.686 451.188 411.868L693.996 438.504C711.573 429.444 732.411 428.357 750.893 435.605C762.49 440.135 771.188 447.383 773.724 454.45C779.16 469.852 761.765 481.992 715.016 514.608L710.848 517.507C648.515 560.814 579.84 605.208 544.325 605.208ZM445.39 414.404C435.968 414.404 416.217 415.129 397.916 420.203C367.655 428.538 140.249 507.541 134.088 512.977C130.646 515.876 129.015 519.863 130.102 522.581C131.552 526.386 137.35 528.742 146.41 529.104C168.154 530.01 490.328 574.585 503.918 576.578C504.461 576.578 505.005 577.122 505.005 577.666C505.186 578.753 508.085 602.49 544.144 602.671H544.325C583.827 602.671 671.89 541.426 709.398 515.333L713.566 512.434C759.047 480.724 776.08 468.946 771.369 455.356C769.194 449.014 760.859 442.309 749.987 438.142C732.048 431.075 711.935 432.162 694.902 441.041C694.721 441.222 694.359 441.222 694.178 441.222L451.007 414.586C450.645 414.404 448.652 414.404 445.39 414.404Z" fill="#231F20"/>
<path d="M489.603 638.368C488.878 638.368 488.334 637.824 488.334 637.099C488.153 621.878 502.105 579.115 502.649 577.303C502.83 576.578 503.555 576.216 504.28 576.578C505.005 576.76 505.367 577.484 505.186 578.028C505.005 578.39 490.69 622.06 491.052 636.918C490.871 637.824 490.327 638.368 489.603 638.368Z" fill="#231F20"/>
<path d="M529.285 499.206L506.817 501.743C505.548 501.743 504.461 502.83 504.461 504.098C504.461 505.367 505.548 506.454 506.817 506.454L529.285 503.917C530.554 503.917 531.641 502.83 531.641 501.562C531.641 500.293 530.554 499.206 529.285 499.206Z" fill="#D1D3D4"/>
<path d="M460.067 514.608L453.544 513.34C453 513.158 452.275 513.34 451.732 513.521C451.188 513.883 450.826 514.246 450.645 514.97C450.282 516.239 451.007 517.507 452.275 517.87L458.799 519.138C459.342 519.319 460.067 519.138 460.611 518.957C461.154 518.594 461.517 518.232 461.698 517.507C462.06 516.239 461.335 514.97 460.067 514.608Z" fill="#D1D3D4"/>
<path d="M477.824 460.792H460.792C459.523 460.792 458.436 461.879 458.436 463.147C458.436 464.416 459.523 465.503 460.792 465.503H477.824C479.093 465.503 480.18 464.416 480.18 463.147C480.18 461.879 479.093 460.792 477.824 460.792Z" fill="#D1D3D4"/>
<path d="M345.911 481.086L331.415 474.563C330.328 474.019 328.879 474.382 328.154 475.469C327.429 476.556 327.973 478.006 329.06 478.73L343.556 485.254C344.643 485.797 346.093 485.435 346.817 484.348C347.361 483.26 346.999 481.811 345.911 481.086Z" fill="#D1D3D4"/>
<path d="M286.477 501.018C286.296 500.474 285.934 499.931 285.39 499.568C284.846 499.206 284.122 499.206 283.578 499.387L275.605 500.656C275.062 500.837 274.518 501.199 274.156 501.743C273.793 502.286 273.793 503.011 273.974 503.555C274.156 504.098 274.518 504.642 275.062 505.004C275.605 505.367 276.33 505.367 276.874 505.186L284.846 503.917C285.39 503.736 285.934 503.374 286.296 502.83C286.658 502.105 286.659 501.562 286.477 501.018Z" fill="#D1D3D4"/>
<path d="M639.999 490.146L620.248 488.696C618.979 488.696 617.892 489.783 617.892 491.052C617.892 492.32 618.979 493.407 620.248 493.407L639.999 494.857C641.267 494.857 642.354 493.77 642.354 492.501C642.354 491.233 641.267 490.146 639.999 490.146Z" fill="#D1D3D4"/>
<path d="M587.813 463.691L578.753 460.792C577.485 460.429 576.216 461.154 575.854 462.422C575.492 463.691 576.216 464.959 577.485 465.322L586.545 468.221C587.813 468.583 589.082 467.858 589.444 466.59C589.625 465.322 589.082 464.053 587.813 463.691Z" fill="#D1D3D4"/>
<path d="M428.357 438.685L413.861 436.33C412.593 435.967 411.324 436.692 410.962 437.96C410.6 439.229 411.324 440.497 412.593 440.86L427.089 443.215C428.357 443.578 429.626 442.853 429.988 441.584C430.35 440.316 429.626 439.048 428.357 438.685Z" fill="#D1D3D4"/>
<path d="M414.948 491.777C414.586 491.414 413.861 491.052 413.318 491.052H409.331C408.788 491.052 408.063 491.233 407.7 491.777C407.338 492.139 406.976 492.864 406.976 493.408C406.976 494.676 408.063 495.763 409.331 495.763H413.318C413.861 495.763 414.586 495.582 414.948 495.038C415.854 494.314 415.854 492.864 414.948 491.777Z" fill="#D1D3D4"/>
<path d="M614.268 539.795C613.543 538.708 612.094 538.345 611.007 538.889C605.571 541.426 599.772 542.694 593.793 542.513C592.524 542.513 591.437 543.6 591.437 544.869C591.437 546.137 592.524 547.224 593.793 547.224C600.497 547.224 607.201 545.775 613.362 542.875C614.449 542.151 614.812 540.882 614.268 539.795Z" fill="#D1D3D4"/>
<path d="M407.338 525.661L396.829 524.03C396.285 523.849 395.56 524.03 395.017 524.212C393.929 524.936 393.567 526.205 394.111 527.473C394.473 528.017 394.835 528.379 395.56 528.56L406.07 530.191C406.613 530.372 407.338 530.191 407.882 530.01C408.425 529.648 408.788 529.285 408.969 528.56C409.331 527.292 408.607 526.024 407.338 525.661Z" fill="#D1D3D4"/>
<path d="M240.452 490.146C240.09 488.878 238.822 488.153 237.553 488.515L223.057 491.233C221.789 491.596 221.064 492.864 221.426 494.132C221.789 495.401 223.057 496.126 224.326 495.763L238.822 493.045C239.909 492.683 240.633 491.414 240.452 490.146Z" fill="#D1D3D4"/>
<path d="M698.527 467.315L691.822 456.805C691.097 455.718 689.829 455.356 688.561 455.899C687.473 456.624 687.111 457.892 687.655 459.161L694.359 469.67C695.084 470.758 696.533 471.12 697.621 470.576C698.708 469.852 699.07 468.402 698.527 467.315Z" fill="#D1D3D4"/>
<path d="M538.889 536.714C537.983 535.808 536.534 535.808 535.628 536.714L523.487 546.861C522.581 547.767 522.581 549.217 523.487 550.123C524.393 551.029 525.843 551.029 526.749 550.123L538.889 539.976C539.795 539.07 539.795 537.62 538.889 536.714Z" fill="#D1D3D4"/>
<path d="M533.816 450.282C533.453 450.282 533.091 450.101 532.728 449.92L532.91 450.101L532.547 449.92L532.185 449.738C531.641 449.376 530.916 449.014 530.373 448.651L529.467 448.108L529.104 447.926L528.923 447.745C528.38 447.383 527.836 446.839 527.474 446.477C526.93 446.114 526.568 445.571 526.024 445.027L525.662 444.665C525.662 444.665 525.299 444.121 525.118 443.759C524.756 443.215 524.393 442.672 524.031 442.128C523.85 441.766 523.668 441.403 523.487 441.222V441.041C523.487 440.86 523.306 440.678 523.306 440.497C522.944 439.229 521.675 438.504 520.407 438.866C519.138 439.229 518.414 440.497 518.776 441.766C521.132 447.926 526.024 452.819 532.366 454.993C533.634 455.356 534.903 454.631 535.265 453.362C535.99 451.913 535.265 450.644 533.816 450.282C533.997 450.282 533.997 450.282 533.816 450.282Z" fill="#D1D3D4"/>
<path d="M344.462 512.615C344.099 511.346 342.831 510.622 341.562 510.984C337.214 512.615 332.502 513.521 327.791 513.702C326.523 513.883 325.617 514.97 325.617 516.239C325.798 517.326 326.704 518.232 327.791 518.413C332.865 518.232 338.119 517.326 342.831 515.514C344.099 515.152 344.824 513.883 344.462 512.615Z" fill="#D1D3D4"/>
<path d="M591.619 512.796C586.364 507.541 580.384 503.011 573.861 499.387C572.774 498.662 571.324 499.025 570.599 500.293C569.875 501.38 570.237 502.83 571.505 503.555C577.666 506.998 583.283 511.165 588.176 516.239C590.35 518.232 593.612 514.97 591.619 512.796Z" fill="#D1D3D4"/>
<path d="M462.785 597.598C464.597 595.604 465.14 592.524 466.952 590.35C470.757 586.001 478.368 587.632 482.354 591.98C486.341 596.329 487.79 602.128 490.327 607.382C494.313 615.899 501.561 623.69 510.803 625.502C520.044 627.314 530.916 621.154 531.822 611.731C542.331 612.818 550.485 621.154 559.908 626.227C574.585 633.838 592.161 633.475 606.476 624.959C607.745 624.234 608.832 623.328 609.738 622.06C612.093 617.711 606.295 612.818 607.02 607.745C607.563 603.94 611.912 601.584 615.717 601.765C619.523 601.946 623.147 603.758 626.771 605.027C638.73 609.013 651.957 607.382 662.648 600.678C665.366 599.228 667.541 596.873 668.447 593.792C671.165 583.102 650.145 577.303 653.045 566.612C666.816 560.995 681.493 554.834 690.191 542.694C698.888 530.554 698.163 510.622 685.117 503.555C677.507 499.568 668.265 500.837 659.93 502.649C651.595 504.461 642.897 506.998 634.562 504.823C626.227 502.649 618.798 494.132 621.516 485.978C622.965 481.811 626.589 478.73 628.401 474.744C631.482 467.858 628.583 459.342 622.965 454.268C617.348 449.195 609.919 446.658 602.49 445.027C551.573 434.336 494.857 458.255 456.624 491.233C440.859 504.823 425.82 526.205 428.538 547.949C429.625 557.371 447.926 614.63 462.785 597.598Z" fill="black"/>
<path d="M581.833 632.931C573.86 632.931 566.25 631.12 559.183 627.314C556.103 625.684 553.204 623.69 550.304 621.697C544.506 617.711 539.07 614.087 532.728 612.999C531.822 616.986 529.648 620.429 526.386 622.784C521.856 626.227 516.058 627.677 510.44 626.589C501.743 624.959 493.77 617.892 489.059 607.745C488.334 606.295 487.79 604.845 487.247 603.396C485.978 599.591 483.985 595.967 481.448 592.705C479.274 590.349 476.194 589.081 472.932 589.081C471.12 589.081 469.308 589.806 468.04 591.255C467.315 592.161 466.771 593.43 466.228 594.517C465.684 595.967 464.778 597.235 463.872 598.503C460.429 602.309 456.986 602.309 454.812 601.765C441.041 597.597 428.176 555.559 427.27 548.13C423.646 520.406 448.108 496.85 455.718 490.327C489.059 461.516 547.405 431.981 602.671 443.759C609.194 445.208 617.53 447.564 623.69 453.181C630.214 459.161 632.569 468.221 629.308 475.106C628.402 476.918 627.314 478.73 626.046 480.361C624.596 482.173 623.328 484.166 622.603 486.341C621.697 489.24 622.06 492.502 623.69 495.038C626.227 499.206 630.214 502.286 634.744 503.555C641.992 505.367 649.783 503.555 657.212 501.924L659.568 501.38C667.903 499.568 677.688 498.119 685.661 502.467C691.278 505.548 695.083 510.984 696.533 517.326C698.526 526.386 696.714 535.989 691.278 543.6C682.218 556.284 666.816 562.626 654.313 567.699C653.588 572.048 657.575 575.672 661.742 579.477C666.454 583.826 671.346 588.175 669.896 594.336C668.99 597.96 665.729 600.497 663.554 601.946C652.501 608.832 638.911 610.644 626.59 606.476L623.872 605.57C621.335 604.483 618.617 603.758 615.718 603.396C612.637 603.396 608.651 605.208 608.288 608.288C608.288 610.282 608.832 612.456 609.919 614.268C611.188 616.986 612.456 620.066 611.006 622.965C610.1 624.415 608.832 625.684 607.382 626.408C599.591 630.576 590.893 632.931 581.833 632.931ZM531.822 610.463C539.432 611.187 545.774 615.536 551.935 619.704C554.653 621.697 557.552 623.509 560.633 625.14C574.948 632.75 592.162 632.207 605.933 623.871C607.02 623.328 607.926 622.422 608.651 621.335C609.557 619.523 608.651 617.348 607.564 614.811C606.295 612.637 605.57 610.1 605.752 607.563C606.295 603.033 611.188 600.315 615.718 600.497C618.798 600.678 621.878 601.584 624.596 602.852L627.133 603.758C638.73 607.564 651.595 606.114 661.924 599.591C665.004 597.597 666.635 595.604 667.178 593.43C668.266 588.9 664.279 585.095 659.749 581.108C655.038 576.76 649.964 572.411 651.776 566.25C651.958 565.887 652.139 565.525 652.501 565.344C664.823 560.27 680.225 554.109 688.922 541.788C693.815 534.721 695.446 526.023 693.634 517.507C692.546 511.89 689.104 507.179 684.211 504.279C676.963 500.474 667.903 501.743 659.93 503.555L657.575 504.098C649.783 505.91 641.81 507.722 633.838 505.729C628.402 504.279 623.872 500.837 621.154 495.944C619.16 492.683 618.798 488.696 619.885 485.072C620.791 482.717 622.06 480.361 623.69 478.549C624.959 477.099 625.865 475.469 626.771 473.838C629.851 467.315 626.408 459.161 621.697 454.812C616.08 449.557 608.107 447.201 601.946 445.933C547.586 434.336 489.965 463.509 457.168 491.958C449.738 498.3 426.182 521.131 429.625 547.586C430.712 555.378 443.578 595.423 455.537 599.228C457.892 599.953 459.886 599.228 462.06 596.873C462.785 595.785 463.51 594.698 464.053 593.611C464.597 592.161 465.322 590.893 466.228 589.806C467.858 587.813 470.395 586.725 473.113 586.725C477.1 586.725 480.724 588.356 483.442 591.255C486.341 594.698 488.515 598.503 489.784 602.671C490.327 604.121 490.871 605.57 491.596 606.839C495.944 616.08 503.192 622.603 511.165 624.234C516.058 625.14 521.131 623.871 525.118 620.791C528.198 618.617 530.191 615.174 530.735 611.55C530.735 611.187 530.916 610.825 531.097 610.644C531.278 610.463 531.641 610.463 531.822 610.463Z" fill="#231F20"/>
<path d="M752.524 527.292C741.289 529.285 730.236 532.547 719.908 537.258C711.029 541.244 702.331 545.593 693.815 550.667C690.916 552.298 687.835 554.11 684.755 555.922C670.802 564.076 656.85 572.955 642.535 580.203C634.2 584.551 625.502 588.175 616.624 591.256C613.181 577.122 597.598 567.337 583.464 570.237C579.296 571.143 575.129 572.954 570.961 572.23C562.988 570.961 558.821 561.358 551.21 558.459C539.976 553.929 528.379 565.163 516.42 564.982C506.998 564.8 499.206 557.915 490.327 554.835C474.019 549.217 457.349 557.19 441.041 557.009C426.001 556.828 413.68 548.311 402.264 539.433C398.096 536.352 394.654 532.366 392.117 527.836C385.231 515.695 385.05 500.112 389.218 486.341C390.848 481.086 393.023 476.013 395.922 471.483C397.734 468.583 399.546 465.865 401.72 463.328C410.78 452.638 421.652 443.94 434.155 437.417C439.41 434.518 444.846 431.981 450.463 429.625C454.993 427.632 460.248 425.82 464.778 427.994C467.315 429.444 469.489 431.437 471.301 433.974C478.006 442.309 485.797 450.826 496.307 453.725C518.776 459.886 539.07 437.96 562.082 435.242C583.283 432.706 603.034 446.658 617.711 462.241C624.234 469.127 631.663 477.281 641.086 476.919C646.34 476.737 651.052 474.019 655.944 471.845C664.823 467.677 674.245 464.959 684.03 463.872C694.358 462.785 705.955 463.691 713.203 471.301C720.089 478.368 720.995 488.878 722.988 498.481C724.981 508.085 729.692 518.594 739.296 520.95C744.37 521.675 752.161 521.856 752.524 527.292Z" fill="white"/>
<path d="M460.248 426.545C461.879 426.545 463.329 426.907 464.778 427.451C467.315 428.9 469.489 430.894 471.301 433.43C478.006 441.766 485.797 450.282 496.307 453.181C499.025 453.906 501.743 454.268 504.461 454.268C523.668 454.268 541.969 437.236 562.083 434.699C563.713 434.518 565.525 434.336 567.156 434.336C586.363 434.336 604.121 447.383 617.711 461.698C624.053 468.583 631.301 476.375 640.723 476.375H641.086C646.341 476.194 651.052 473.476 655.944 471.301C664.823 467.134 674.245 464.416 684.03 463.328C686.386 463.147 688.741 462.966 690.916 462.966C699.251 462.966 707.586 464.959 713.203 470.757C720.089 477.824 720.995 488.334 722.988 497.937C724.981 507.541 729.693 518.051 739.296 520.406C744.551 521.675 752.524 521.856 752.705 527.292C741.471 529.285 730.417 532.547 720.089 537.258C711.21 541.244 702.513 545.593 693.996 550.667C691.097 552.298 688.017 554.109 684.936 555.921C670.984 564.075 657.031 572.954 642.717 580.202C634.381 584.551 625.684 588.175 616.805 591.255C613.906 578.934 601.403 569.693 588.719 569.693C587.088 569.693 585.276 569.874 583.645 570.236C580.021 570.961 576.579 572.411 572.955 572.411C572.23 572.411 571.686 572.411 571.143 572.229C563.17 570.961 559.002 561.358 551.392 558.458C549.58 557.734 547.587 557.371 545.775 557.371C536.533 557.371 526.749 564.981 516.964 564.981H516.42C506.998 564.8 499.206 557.915 490.327 554.834C486.16 553.385 481.811 552.841 477.462 552.841C465.503 552.841 453.363 557.009 441.403 557.009H441.041C426.001 556.827 413.68 548.311 402.264 539.432C398.097 536.352 394.654 532.365 392.117 527.835C385.231 515.695 385.05 500.112 389.218 486.341C390.849 481.086 393.023 476.012 395.922 471.482C397.734 468.583 399.546 465.865 401.721 463.328C410.781 452.638 421.653 443.94 434.155 437.417C439.41 434.518 444.846 431.981 450.463 429.625C453.544 427.632 456.805 426.726 460.248 426.545ZM460.248 424.008C456.443 424.189 452.819 425.095 449.376 426.726C443.759 429.082 438.142 431.8 432.706 434.699C418.572 442.49 407.7 451.007 399.546 461.154C397.372 463.872 395.379 466.59 393.567 469.67C390.667 474.563 388.312 479.817 386.681 485.253C381.97 500.837 383.057 516.782 389.943 528.741L390.124 528.923C392.842 533.634 396.466 537.802 400.633 541.063C412.411 550.123 425.277 559.002 440.86 559.183H441.403C447.564 559.002 453.725 558.277 459.886 557.009C465.684 555.921 471.483 555.197 477.462 555.015C481.63 555.015 485.616 555.559 489.421 556.827C492.683 558.096 495.763 559.364 498.663 561.176C504.099 564.076 509.716 567.156 516.239 567.156H516.601C522.037 567.156 527.292 565.163 532.366 563.169C536.896 561.357 541.245 559.545 545.412 559.545C547.043 559.545 548.674 559.908 550.123 560.451C553.204 561.901 555.741 564.076 558.096 566.612C561.539 570.055 565.163 573.679 570.418 574.404C571.143 574.585 571.867 574.585 572.773 574.585C575.491 574.404 578.028 574.041 580.565 573.135C581.652 572.773 582.739 572.592 583.827 572.229C585.276 571.867 586.907 571.686 588.357 571.867C600.135 571.867 611.188 580.565 613.906 591.437C614.087 592.161 614.449 592.705 615.174 593.067C615.537 593.249 615.899 593.43 616.443 593.43C616.805 593.43 616.986 593.43 617.349 593.249C626.409 590.168 635.106 586.363 643.623 582.014C654.676 576.397 665.548 569.874 676.057 563.532L686.023 557.552C689.466 555.559 692.365 553.928 694.902 552.297C703.237 547.405 711.935 543.056 720.814 539.07C731.142 534.54 741.833 531.278 752.886 529.285C754.155 529.104 755.061 528.017 755.061 526.567C754.879 520.225 747.813 518.957 742.92 518.051C741.833 517.87 740.746 517.688 739.659 517.326C730.417 514.97 726.793 503.555 725.344 496.85C724.981 495.401 724.8 493.951 724.438 492.501C722.807 483.804 721.176 475.106 714.834 468.583C709.398 462.966 701.244 460.067 690.735 460.067C688.379 460.067 685.842 460.248 683.487 460.429C673.521 461.516 663.736 464.416 654.676 468.583L652.501 469.489C648.515 471.482 644.71 473.294 640.905 473.294H640.542C632.569 473.294 625.684 466.046 619.704 459.704L619.342 459.342C607.201 446.477 588.357 431.075 566.975 431.075C565.163 431.075 563.351 431.256 561.539 431.437C551.573 432.706 542.332 437.236 533.272 441.584C523.306 446.477 513.883 451.007 504.099 451.007C501.562 451.007 499.025 450.644 496.669 450.101C486.885 447.564 479.637 439.41 472.932 431.256L472.751 431.075C470.939 428.357 468.402 426.182 465.503 424.552C464.053 424.189 462.241 423.827 460.248 424.008Z" fill="#231F20"/>
<path d="M684.755 555.74C670.802 563.894 656.85 572.773 642.535 580.021C640.542 576.76 638.186 573.679 635.831 570.78C629.851 563.713 622.06 557.733 612.818 556.827C605.208 556.103 597.235 558.639 589.987 556.103C579.659 552.479 575.31 539.976 566.25 533.815C547.768 521.494 521.856 541.063 501.199 532.547C492.683 528.923 486.522 520.95 477.643 518.413C470.939 516.601 463.691 518.232 456.805 520.225C441.041 524.755 425.276 530.735 408.968 530.372C403.17 530.191 397.553 529.285 392.117 527.292C385.231 515.152 385.05 499.568 389.218 485.797C390.124 486.703 391.211 487.428 392.298 488.153C403.895 496.125 419.297 490.871 432.887 488.515C454.268 484.891 476.375 488.696 495.401 499.568C503.192 503.917 511.346 509.715 520.044 508.085C524.755 507.179 528.742 504.28 533.09 502.105C552.298 492.32 578.39 500.112 589.262 518.594C591.437 522.218 593.249 526.386 596.873 528.56C601.403 531.278 607.564 529.829 612.275 527.473C616.986 525.118 621.516 521.494 626.771 520.225C636.556 517.87 646.34 523.305 654.494 528.923C665.366 536.533 676.601 545.231 684.755 555.74Z" fill="#D1D3D4"/>
<path d="M719.727 537.258C710.848 541.245 702.15 545.593 693.634 550.667C690.01 537.439 680.406 526.567 667.722 521.313C662.286 519.138 656.307 518.051 651.414 514.608C646.522 511.165 643.26 505.367 639.455 500.475C635.65 495.582 630.033 491.233 623.872 492.139C619.704 492.683 616.261 495.582 612.456 497.032C605.752 499.568 598.141 497.575 591.981 494.133C585.82 490.69 580.203 485.979 574.223 482.355C559.727 473.657 542.332 470.939 525.843 475.107C516.42 477.462 507.541 482.173 497.938 483.079C488.878 483.985 479.818 481.63 472.389 476.556C468.402 473.838 464.597 470.033 459.886 468.765C453.725 467.134 447.202 469.852 441.041 471.483C427.451 474.563 413.136 471.483 401.902 463.147C410.962 452.457 421.834 443.759 434.337 437.236C446.477 439.048 457.893 444.303 467.315 452.457C472.389 456.805 477.1 462.241 483.623 464.235C488.515 465.865 493.951 465.141 499.025 464.235C514.246 461.335 529.104 455.899 544.506 454.269C559.908 452.638 577.122 456.262 587.088 468.04C589.806 471.482 592.162 475.469 595.605 478.006C600.135 481.267 606.295 481.63 611.913 481.992C630.757 482.898 651.777 485.797 662.83 500.837C665.004 503.917 666.997 507.723 670.259 509.535C681.131 515.695 694.902 498.844 705.774 504.823C708.855 506.817 711.029 509.716 712.297 513.159C715.74 520.769 718.277 528.923 719.727 537.258Z" fill="#D1D3D4"/>
<path d="M343.374 441.947C341.38 453.362 336.126 464.053 328.153 472.389C322.898 478.006 317.1 483.079 310.758 487.247C307.677 489.421 304.959 491.777 302.241 494.495C298.98 497.756 295.356 500.656 291.188 503.011C281.403 508.085 269.444 508.266 258.753 507.541C243.17 506.635 226.318 503.917 212.366 511.347C206.568 514.427 201.132 519.138 194.608 518.595C189.172 518.232 184.824 514.064 179.75 512.615C163.08 507.36 154.201 525.118 141.517 531.822C125.934 539.976 94.2236 522.581 94.2236 522.581L91.1432 519.863C90.962 518.051 90.962 516.058 91.1432 514.246C92.2304 510.078 93.3176 505.91 94.586 501.924C96.0356 496.669 97.6664 491.596 99.116 486.341C100.022 483.26 100.928 480.18 101.653 477.281C102.015 476.194 102.74 473.476 103.646 470.033C104.552 466.59 105.82 462.241 106.908 457.892C109.444 447.564 111.619 436.873 110.169 435.242C114.337 439.591 118.323 444.121 122.491 448.651C124.846 451.55 127.746 453.906 131.007 455.718C145.141 462.785 154.563 440.497 162.536 433.068C170.146 425.82 180.656 422.558 190.622 419.478C193.34 418.753 196.239 417.847 198.776 419.116C201.313 420.384 202.762 422.74 204.574 424.914C211.46 432.887 223.782 432.343 234.11 431.256C245.526 430.169 257.304 428.719 266.726 422.196C271.256 419.116 274.88 415.129 279.229 411.686C294.812 399.727 318.73 400.814 333.589 413.68C333.951 414.042 334.314 414.223 334.676 414.586C338.481 418.028 341.38 422.558 343.011 427.451C343.374 428.538 343.555 429.625 343.736 430.712C344.28 434.336 344.098 438.142 343.374 441.947Z" fill="white"/>
<path d="M304.959 402.989C315.469 402.807 325.616 406.613 333.589 413.317C333.951 413.68 334.314 413.861 334.676 414.223C338.481 417.666 341.381 422.196 343.011 427.088C343.374 428.175 343.555 429.263 343.736 430.35C344.28 434.155 344.099 437.96 343.374 441.584C341.381 453 336.126 463.691 328.153 472.207C322.898 477.824 317.1 482.898 310.758 487.065C307.677 489.24 304.959 491.595 302.241 494.313C298.98 497.575 295.356 500.474 291.188 502.83C283.759 506.635 275.061 507.722 266.726 507.722C264.008 507.722 261.471 507.541 258.753 507.36C251.505 506.998 244.076 506.091 236.647 506.091C228.131 506.091 219.795 507.179 212.366 511.165C206.93 514.064 201.675 518.413 195.515 518.413H194.609C189.173 518.051 184.824 513.883 179.75 512.433C177.938 511.89 175.945 511.527 173.952 511.527C160.905 511.527 152.751 525.842 141.517 531.641C138.255 533.09 134.813 533.815 131.37 533.815C115.243 533.815 94.4051 522.399 94.4051 522.399L91.3247 519.681C91.1435 517.869 91.1435 515.876 91.3247 514.064C92.4119 509.897 93.4991 505.729 94.7675 501.743C96.2171 496.488 97.8479 491.414 99.2975 486.159C100.203 483.079 101.109 479.999 101.834 477.099C102.197 476.012 102.921 473.294 103.827 469.851C104.733 466.409 106.002 462.06 107.089 457.711C109.626 447.383 111.8 436.692 110.351 435.061C114.518 439.41 118.505 443.94 122.672 448.47C125.028 451.369 127.927 453.725 131.189 455.537C132.819 456.443 134.813 456.805 136.625 456.805C147.859 456.805 155.832 439.41 162.717 432.887C170.328 425.639 180.837 422.377 190.803 419.297C192.434 418.753 194.246 418.391 196.058 418.21C196.964 418.21 198.051 418.391 198.957 418.753C201.494 419.84 202.944 422.377 204.756 424.552C209.648 430.169 217.077 431.618 224.688 431.618C227.949 431.618 231.211 431.437 234.291 431.075C245.707 429.987 257.485 428.538 266.907 422.015C271.437 418.934 275.061 414.948 279.41 411.505C286.658 405.888 295.537 402.989 304.959 402.989ZM304.959 400.633C295.175 400.633 285.571 403.714 277.598 409.512C275.605 410.962 273.793 412.773 271.981 414.404C269.807 416.397 267.632 418.209 265.277 419.84C256.217 426.182 244.257 427.269 233.748 428.357C231.211 428.538 227.768 428.9 224.325 428.9C215.628 428.9 209.829 426.907 206.205 422.74C205.662 422.196 205.299 421.652 204.937 421.109C203.669 419.115 201.675 417.485 199.501 416.398C198.233 415.854 196.964 415.673 195.696 415.673C193.703 415.673 191.709 416.035 189.716 416.76C178.844 420.022 168.335 423.464 160.543 430.894C158.187 433.612 156.013 436.33 154.02 439.41C148.946 446.477 143.148 454.268 136.625 454.268C135.175 454.268 133.544 453.906 132.276 453.181C129.377 451.55 126.659 449.195 124.665 446.658C120.498 442.128 116.511 437.779 112.344 433.249C111.8 432.706 111.257 432.524 110.532 432.524C109.807 432.524 109.263 432.887 108.72 433.249C107.814 434.155 107.633 435.423 108.357 436.511C108.539 437.235 108.72 441.041 104.733 457.168C103.646 461.516 102.559 465.684 101.472 469.308C100.566 472.57 99.8411 474.925 99.4787 476.375V476.737C98.5727 479.818 97.8479 482.898 96.9419 485.797C95.8547 489.602 94.7675 493.407 93.6803 497.213L92.4119 501.38C91.3247 505.548 90.0563 509.716 88.9691 513.883C88.6067 516.058 88.6067 518.232 88.9691 520.406C88.9691 520.95 89.3315 521.675 89.8751 522.037L92.9555 524.755C93.1367 524.936 93.3179 524.936 93.3179 525.117C94.2239 525.661 114.881 536.895 131.551 536.895C135.537 537.077 139.343 536.171 142.967 534.54C147.497 532.003 151.483 528.923 155.107 525.299C161.087 519.863 166.885 514.789 174.133 514.789C175.945 514.789 177.576 515.152 179.207 515.514C181.2 516.239 183.012 516.963 184.824 518.051C187.904 519.863 191.166 521.131 194.609 521.675H195.877C201.132 521.675 205.481 518.957 209.829 516.42C211.279 515.514 212.547 514.789 213.816 514.064C219.977 510.803 227.225 509.353 236.828 509.353C241.902 509.353 247.338 509.716 252.411 510.078C254.586 510.259 256.579 510.44 258.753 510.44C261.653 510.622 264.371 510.803 266.907 510.803C277.417 510.803 285.752 509.172 292.457 505.548C296.624 503.192 300.611 500.112 304.053 496.669L304.416 496.307C306.771 493.951 309.489 491.777 312.207 489.783C318.731 485.435 324.71 480.361 330.146 474.563C338.481 465.684 343.917 454.631 345.911 442.672C346.635 438.685 346.817 434.699 346.273 430.712C346.092 429.444 345.911 428.357 345.548 427.088C343.917 421.652 340.656 416.76 336.488 412.955C336.126 412.592 335.763 412.23 335.22 411.868C326.703 404.438 316.013 400.452 304.959 400.633Z" fill="#231F20"/>
<path d="M328.153 472.389C322.898 478.006 317.1 483.079 310.758 487.247C307.678 489.421 304.96 491.777 302.242 494.495C295.175 495.22 288.289 494.857 281.222 493.77C261.29 490.327 240.09 480.724 221.97 489.784C213.272 494.132 206.206 502.468 196.602 503.193C186.092 503.917 176.308 494.857 166.16 497.213C150.396 500.837 146.772 520.769 128.652 522.943C116.693 524.393 105.277 519.863 98.754 509.716C97.1232 507.179 95.8548 504.642 94.5864 502.105C96.036 496.85 97.6668 491.777 99.1164 486.522C100.385 488.515 101.653 490.871 102.922 492.502C113.069 505.91 125.753 502.105 137.168 491.596C144.779 484.529 153.476 476.194 163.624 477.825C170.69 478.912 176.489 484.891 183.556 485.979C194.79 487.609 203.488 477.1 213.454 471.664C224.326 465.865 237.372 466.046 249.331 468.221C261.29 470.395 273.068 474.563 285.209 476.375C299.886 478.187 314.382 476.919 328.153 472.389Z" fill="#D1D3D4"/>
<path d="M343.736 430.531C333.589 442.853 320.905 453.544 305.503 456.624C290.101 459.704 273.974 455.174 258.572 451.732C243.17 448.289 225.956 446.477 212.185 454.45C202.944 459.886 194.428 469.67 184.099 467.315C180.113 466.409 176.851 463.872 173.046 462.785C150.215 455.718 133.001 492.32 109.807 475.288C107.633 473.657 105.64 471.664 104.009 469.67C104.915 466.228 106.183 461.879 107.27 457.53C109.082 459.704 111.438 461.335 113.794 462.785C127.021 469.67 139.524 462.06 150.94 454.993C160.181 449.195 171.596 443.759 181.562 448.108C183.556 449.376 185.73 450.101 188.086 450.644C191.347 450.826 194.065 448.651 196.783 446.839C205.481 441.222 216.353 439.954 226.681 438.866C248.244 436.692 269.988 434.336 291.37 437.96C298.436 439.229 305.866 441.041 312.57 438.323C322.717 434.336 326.341 422.015 333.408 413.68C333.589 413.498 333.589 413.498 333.77 413.317C334.133 413.68 334.495 413.861 334.858 414.223C338.663 417.666 341.562 422.196 343.193 427.088C343.374 428.357 343.555 429.444 343.736 430.531Z" fill="#D1D3D4"/>
<path d="M406.975 451.007C391.936 444.846 335.763 446.658 335.763 446.658C335.763 446.658 243.533 437.236 215.809 455.718C215.809 455.718 253.499 544.506 267.632 577.847C267.632 577.847 285.027 561.176 294.087 568.605C303.147 576.035 298.436 593.974 286.839 602.852L314.382 637.099C314.382 637.099 381.063 563.351 393.385 562.626C405.707 561.901 570.599 514.608 570.599 514.608C570.599 514.608 422.015 457.167 406.975 451.007ZM338.119 574.223C331.052 577.303 323.623 575.854 321.267 570.78C318.912 565.706 322.898 559.002 329.965 555.921C337.032 552.841 344.461 554.291 346.817 559.364C349.172 564.438 345.186 570.961 338.119 574.223Z" fill="white"/>
<path d="M314.019 638.368C313.657 638.368 313.295 638.186 313.113 637.824L285.571 603.577C285.39 603.396 285.209 603.034 285.39 602.671C285.39 602.309 285.571 601.946 285.933 601.765C292.638 596.692 296.987 588.719 297.53 580.202C297.893 576.216 296.262 572.23 293.181 569.33C285.027 562.626 268.719 578.39 268.538 578.39C268.176 578.753 267.813 578.753 267.451 578.753C267.089 578.753 266.726 578.39 266.545 578.028C252.774 545.05 215.084 456.805 214.722 455.899C214.541 455.356 214.722 454.631 215.265 454.268C243.17 435.605 332.321 444.665 336.126 445.027C338.3 445.027 392.66 443.215 407.7 449.376C422.739 455.537 569.511 512.252 570.961 512.977C571.686 513.158 571.867 513.883 571.686 514.608C571.505 514.97 571.142 515.333 570.78 515.333C564.075 517.326 405.344 562.445 393.204 563.351C384.687 563.894 341.743 607.926 315.107 637.462C314.744 638.186 314.382 638.368 314.019 638.368ZM288.47 603.034L314.201 635.106C324.529 623.69 381.063 562.082 393.023 561.176C403.895 560.452 542.15 521.131 566.431 514.246C543.781 505.548 420.203 457.711 406.613 452.094C392.117 446.114 336.307 447.745 335.763 447.745C334.676 447.564 245.526 438.685 217.259 456.08C221.426 465.684 254.405 543.238 267.995 575.491C272.343 571.686 286.296 560.633 294.631 567.518C298.255 570.78 300.248 575.491 299.886 580.384C299.342 589.262 295.175 597.416 288.47 603.034ZM330.871 576.941C325.979 576.941 321.811 574.948 320.18 571.142C317.643 565.525 321.811 558.096 329.421 554.653C337.032 551.21 345.367 553.022 347.904 558.821C348.991 561.176 348.991 563.894 347.904 566.25C346.092 570.418 342.83 573.679 338.663 575.31C336.126 576.397 333.589 576.941 330.871 576.941ZM337.213 555.559C334.857 555.559 332.502 556.103 330.327 557.009C323.985 559.908 320.361 565.706 322.355 570.236C324.348 574.766 331.052 575.854 337.575 572.954C341.018 571.505 343.917 568.787 345.548 565.344C346.273 563.532 346.273 561.72 345.548 559.908C344.28 557.009 341.018 555.559 337.213 555.559Z" fill="#231F20"/>
<path d="M369.648 545.774C472.424 545.774 555.74 518.759 555.74 485.435C555.74 452.11 472.424 425.095 369.648 425.095C266.872 425.095 183.556 452.11 183.556 485.435C183.556 518.759 266.872 545.774 369.648 545.774Z" fill="#231F20"/>
<path d="M369.648 547.224C266.183 547.224 182.106 519.501 182.106 485.435C182.106 451.369 266.364 423.646 369.648 423.646C472.932 423.646 557.19 451.369 557.19 485.435C557.19 519.501 473.113 547.224 369.648 547.224ZM369.648 426.545C267.814 426.545 184.824 453 184.824 485.616C184.824 518.232 267.814 544.687 369.648 544.687C471.482 544.687 554.472 518.232 554.472 485.616C554.472 453 471.482 426.364 369.648 426.545Z" fill="#231F20"/>
<path d="M373.997 534.54C476.773 534.54 560.089 507.525 560.089 474.2C560.089 440.876 476.773 413.861 373.997 413.861C271.221 413.861 187.904 440.876 187.904 474.2C187.904 507.525 271.221 534.54 373.997 534.54Z" fill="white"/>
<path d="M373.997 535.99C270.713 535.99 186.636 508.266 186.636 474.382C186.636 440.497 270.713 412.774 373.997 412.774C477.281 412.774 561.358 440.497 561.358 474.382C561.358 508.266 477.462 535.99 373.997 535.99ZM373.997 415.129C272.163 415.129 189.173 441.584 189.173 474.201C189.173 506.816 272.163 533.272 373.997 533.272C475.831 533.272 558.821 506.816 558.821 474.201C558.821 441.584 476.013 415.129 373.997 415.129Z" fill="#231F20"/>
<path d="M267.27 483.804C269.807 482.536 272.706 480.542 272.706 477.643C272.706 474.744 269.988 472.57 267.451 471.12C264.914 469.67 262.196 468.583 259.478 467.496C246.432 462.604 231.936 462.241 218.708 466.771C206.387 471.12 217.078 480.18 223.782 483.804C237.553 491.052 253.861 491.052 267.27 483.804Z" fill="#D1D3D4"/>
<path d="M282.672 404.076C298.074 410.418 313.114 418.753 324.529 430.894C335.945 443.034 343.555 459.523 342.468 476.012C342.106 482.898 339.75 490.327 333.771 493.77C322.899 500.112 305.322 490.508 297.893 500.837C297.168 502.105 296.262 503.374 295.175 504.28C291.189 507.179 286.296 501.924 285.028 497.032C283.759 492.139 282.672 486.16 277.961 485.072C274.881 484.348 271.981 486.16 269.263 487.79C263.284 491.233 254.767 493.77 249.875 488.696C244.077 482.717 247.882 470.214 240.453 466.409C238.278 465.322 235.741 465.14 233.386 465.865C226.681 467.315 221.427 472.388 215.447 475.831C209.467 479.274 201.495 481.448 196.059 477.1C191.347 473.294 190.441 466.046 185.73 462.422C174.315 453.362 155.289 473.294 143.873 464.234C136.081 458.074 139.524 443.759 131.733 437.598C126.115 433.249 117.78 435.424 111.438 432.343C101.835 427.813 100.929 413.498 107.271 404.982C108.901 403.17 110.17 401.177 111.076 398.821C113.431 391.03 102.559 380.52 109.626 373.634C116.693 366.749 133.363 376.715 139.705 381.064C148.403 386.681 156.738 393.566 166.704 396.466C176.67 399.365 187.361 398.459 197.689 397.915C223.963 396.284 258.21 394.11 282.672 404.076Z" fill="black"/>
<path d="M292.819 506.635C292.094 506.635 291.551 506.454 290.826 506.273C287.383 505.004 284.665 501.018 283.94 497.575L283.578 496.307C282.491 492.139 281.403 487.247 277.779 486.341C275.243 485.797 272.706 487.247 270.169 488.696C263.283 492.683 254.405 494.857 249.15 489.602C246.251 486.522 245.526 482.173 244.801 478.005C244.076 473.475 243.351 469.308 239.909 467.496C237.915 466.59 235.741 466.409 233.567 467.133C229.037 468.221 225.231 470.757 221.064 473.657C219.433 474.744 217.802 476.012 215.99 477.099C209.829 480.723 201.132 483.079 195.333 478.187C192.978 476.012 191.166 473.294 189.897 470.395C188.81 467.677 187.179 465.321 185.005 463.509C179.75 459.342 172.683 461.879 165.254 464.597C157.463 467.315 149.49 470.214 143.148 465.321C138.799 461.879 137.712 456.443 136.625 451.188C135.537 445.933 134.631 441.403 131.007 438.685C128.108 436.511 124.484 436.148 120.498 435.605C117.236 435.423 113.975 434.699 110.894 433.611C106.727 431.618 103.646 427.632 102.74 423.102C101.109 416.579 102.559 409.693 106.364 404.257L107.451 402.989C108.539 401.72 109.445 400.271 109.988 398.64C110.894 395.741 109.626 392.117 108.176 388.493C106.364 383.238 104.19 377.439 108.72 372.909C114.156 367.473 124.847 370.01 140.43 380.157C142.242 381.426 144.235 382.694 146.047 383.963C152.57 388.493 159.456 393.204 167.066 395.378C175.945 398.096 185.549 397.371 194.79 396.828L199.501 396.465C225.956 394.835 258.935 393.023 283.215 402.989C301.517 410.599 315.288 419.478 325.435 430.169C338.119 443.577 344.823 460.429 343.736 476.375C343.374 481.448 341.743 490.871 334.495 495.219C329.24 498.3 322.898 497.937 316.556 497.575C309.308 497.213 302.604 496.85 298.98 501.924C298.799 502.286 298.617 502.649 298.255 503.011C297.711 504.098 296.805 505.004 295.899 505.729C294.993 506.273 293.906 506.635 292.819 506.635ZM276.692 483.804C277.236 483.804 277.961 483.804 278.504 483.985C283.578 485.253 285.027 491.052 286.115 495.763L286.477 497.031C287.202 499.931 289.195 502.467 291.913 503.917C292.819 504.279 293.906 504.098 294.631 503.555C295.356 503.011 295.899 502.286 296.262 501.561C296.443 501.199 296.805 500.837 296.987 500.474C301.517 494.132 309.308 494.676 316.919 495.038C322.717 495.401 328.878 495.763 333.408 493.045C339.75 489.24 341.199 480.905 341.381 476.193C342.287 460.973 335.763 444.846 323.623 431.981C313.838 421.471 300.248 412.773 282.309 405.525C258.572 395.741 225.956 397.734 199.863 399.183L195.152 399.365C185.73 399.908 175.764 400.633 166.523 397.734C158.55 395.378 151.664 390.486 144.779 385.956C142.967 384.687 141.155 383.419 139.161 382.151C121.223 370.373 113.793 371.641 110.532 374.721C107.089 378.164 108.72 382.513 110.532 387.587C111.981 391.573 113.431 395.741 112.344 399.365C111.619 401.177 110.532 402.989 109.263 404.438C108.901 404.801 108.539 405.344 108.357 405.707C104.915 410.599 103.827 416.76 105.277 422.377C106.002 426.182 108.539 429.444 111.981 431.075C114.699 432.162 117.78 432.705 120.679 432.887C124.847 433.249 129.014 433.793 132.457 436.511C136.806 439.953 137.893 445.389 138.98 450.644C140.067 455.899 140.973 460.429 144.597 463.147C149.852 467.315 156.919 464.778 164.348 462.06C172.14 459.342 180.294 456.443 186.455 461.335C188.81 463.509 190.622 466.227 191.891 469.127C192.978 471.845 194.609 474.2 196.602 476.012C201.494 479.999 209.105 477.824 214.541 474.563C216.171 473.475 217.802 472.388 219.614 471.301C223.601 468.402 227.949 465.503 232.842 464.415C235.56 463.691 238.278 463.872 240.815 465.14C245.345 467.496 246.251 472.569 246.975 477.462C247.519 481.267 248.244 485.253 250.599 487.609C254.948 491.958 262.559 489.783 268.538 486.522C271.075 485.253 273.793 484.166 276.692 483.804Z" fill="#231F20"/>
<path d="M456.261 461.335C445.389 496.669 387.224 509.353 331.233 492.139C275.243 474.925 238.459 435.242 249.331 399.908C251.868 391.573 256.217 380.701 262.74 373.997C284.484 352.253 327.428 351.347 370.191 364.393C406.794 375.628 452.094 403.351 464.234 427.088C464.415 427.088 460.067 449.014 456.261 461.335Z" fill="#231F20"/>
<path d="M380.701 501.018C363.849 501.018 346.998 498.481 330.871 493.407C272.706 475.65 237.009 435.242 248.063 399.546C251.687 387.405 256.398 378.527 261.834 373.091C282.672 352.434 323.261 348.629 370.735 363.125C416.397 377.077 455.537 406.794 465.684 426.363C465.865 426.726 465.865 426.907 465.865 427.269C465.865 427.451 461.516 449.376 457.711 461.516C452.456 478.911 435.967 491.596 411.143 497.575C401.177 499.931 390.848 501.199 380.701 501.018ZM318.006 357.326C294.812 357.326 275.605 363.306 263.827 375.084C258.753 380.157 254.223 388.855 250.599 400.452C240.271 434.155 275.967 473.838 331.596 490.871C358.413 499.025 387.043 500.656 410.418 495.038C434.155 489.421 449.919 477.281 454.993 460.973C458.436 449.919 462.241 430.712 462.966 427.451C450.463 403.895 404.801 376.533 369.829 365.843C353.159 360.407 335.582 357.689 318.006 357.326Z" fill="#231F20"/>
<path d="M464.377 427.082C470.417 390.752 428.495 353.517 370.742 343.916C312.989 334.315 261.275 355.983 255.235 392.313C249.195 428.643 291.117 465.878 348.87 475.479C406.623 485.08 458.337 463.412 464.377 427.082Z" fill="white"/>
<path d="M376.171 479.093C366.93 479.093 357.689 478.368 348.629 476.737C320.543 472.026 295.175 460.792 277.236 444.846C259.297 428.9 250.962 410.056 253.861 392.117C260.022 355.152 312.57 332.864 370.916 342.649C429.263 352.434 471.845 390.305 465.684 427.451C462.785 445.571 448.832 460.61 426.545 469.852C410.599 476.194 393.385 479.455 376.171 479.093ZM343.736 342.83C298.436 342.83 261.471 362.581 256.579 392.479C253.68 409.693 261.653 427.451 279.048 443.034C296.443 458.617 321.449 469.67 349.172 474.382C376.896 479.093 404.076 476.556 425.639 467.496C447.201 458.436 460.429 444.121 463.328 426.907C469.308 391.211 427.813 354.608 370.735 345.186C361.675 343.736 352.796 342.83 343.736 342.83Z" fill="#231F20"/>
<path d="M310.215 454.45C323.08 452.638 348.448 433.793 321.268 434.155C315.651 434.336 296.081 435.242 293.182 439.772C287.927 447.745 304.416 455.356 310.215 454.45Z" fill="#D1D3D4"/>
<path d="M331.777 450.282C330.328 452.094 328.697 454.268 329.24 456.624C329.965 458.617 331.415 460.248 333.408 461.154C337.938 463.691 343.012 465.322 348.266 466.046C352.615 466.59 358.051 466.046 360.226 462.241C361.313 460.067 361.675 457.53 361.313 455.174C360.95 449.92 358.232 432.162 352.072 430.35C345.911 428.538 335.582 445.571 331.777 450.282Z" fill="#D1D3D4"/>
<path d="M603.577 535.808C606.295 535.627 609.194 536.352 611.369 537.802C615.355 540.52 617.167 546.137 621.697 547.586C627.858 549.58 632.932 542.513 635.106 536.352C637.28 530.191 639.455 522.762 645.616 521.131C652.32 519.5 659.387 526.024 665.729 523.487C667.722 522.581 669.534 521.131 670.802 519.5C677.326 512.434 682.943 504.098 690.553 498.3C698.888 491.958 707.586 490.327 716.102 495.401C721.176 498.3 729.33 508.085 735.128 498.844C737.303 495.582 736.216 490.69 738.752 487.79C741.289 484.891 746 484.891 749.624 486.341C753.248 487.79 756.691 489.965 760.496 490.508C768.469 491.414 775.536 482.173 772.637 474.744C772.093 473.476 771.55 472.207 771.187 470.758C770.644 467.315 773.543 464.234 776.804 462.966C780.066 461.698 783.509 461.516 786.77 460.61C794.018 458.436 800.179 450.826 797.824 443.578C795.468 436.33 786.227 432.706 785.683 425.276C785.14 417.847 792.569 413.317 798.73 409.693C804.89 406.069 811.595 399.184 808.514 392.66C806.521 388.493 801.085 386.862 798.911 382.513C795.468 375.809 802.354 368.742 807.971 364.031C813.588 359.32 819.024 350.26 813.407 345.186C810.326 342.287 805.253 342.649 802.354 339.388C796.555 332.864 807.427 323.442 805.978 314.926C805.072 309.49 798.911 306.228 793.475 305.866C784.596 305.322 776.08 309.852 769.556 316.013C763.033 322.174 758.141 329.603 752.524 336.67C741.833 349.897 728.786 360.95 715.921 372.004C692.365 391.936 668.084 411.143 641.267 426.364C631.482 431.8 617.53 435.605 609.557 443.759C600.678 453 597.779 465.684 587.45 474.563C578.753 481.811 568.243 486.703 560.452 494.857C552.66 503.011 547.768 515.876 553.566 525.48C556.646 530.554 562.264 533.634 567.881 535.627C575.854 538.345 584.551 539.07 592.886 537.62C596.692 536.533 600.134 535.99 603.577 535.808Z" fill="black"/>
<path d="M623.872 549.217C622.966 549.217 622.241 549.036 621.516 548.855C618.436 547.949 616.624 545.412 614.63 543.056C613.543 541.426 612.275 539.976 610.644 538.889C608.47 537.439 606.114 536.896 603.577 537.077C601.04 537.258 598.504 537.62 596.148 538.164L593.611 538.708C585.095 540.157 576.216 539.432 568.062 536.714C560.995 534.359 556.103 530.735 553.204 526.024C546.862 515.876 551.935 502.105 560.27 493.77C564.982 489.24 570.236 485.254 575.854 481.811C579.84 479.274 583.645 476.556 587.45 473.476C593.068 468.764 596.51 462.785 599.772 456.986C602.49 451.913 605.752 447.202 609.557 442.853C614.993 437.236 622.966 433.793 630.757 430.35C634.381 428.9 638.005 427.088 641.629 425.276C669.534 409.512 695.083 389.036 716.102 371.098C728.786 360.226 742.014 349.172 752.524 335.945C754.154 333.952 755.785 331.777 757.235 329.784C760.859 324.529 765.026 319.818 769.556 315.288C774.086 311.12 783.328 304.054 794.381 304.778C800.36 305.141 807.065 308.765 808.152 314.926C808.877 319.093 807.065 323.08 805.434 327.066C803.441 331.777 801.629 335.764 804.347 338.844C805.796 340.112 807.608 341.018 809.42 341.562C811.595 342.106 813.407 343.193 815.219 344.461C817.031 346.092 817.937 348.448 817.937 350.984C817.756 356.42 813.407 362.219 809.602 365.299C801.266 372.366 798.548 377.802 800.904 382.332C801.991 384.144 803.622 385.775 805.434 386.862C807.608 388.312 809.42 390.124 810.689 392.479C813.95 399.184 807.971 406.794 800.542 411.143C794.018 414.948 787.495 419.297 788.039 425.458C788.401 429.082 790.938 431.8 793.837 434.699C796.555 437.054 798.73 440.135 800.179 443.578C801.266 446.839 800.723 450.463 799.092 453.362C796.736 457.53 792.931 460.792 788.22 462.241C786.77 462.604 785.321 462.966 783.871 463.147C781.878 463.51 780.066 463.872 778.254 464.597C775.536 465.684 772.999 468.221 773.543 470.939C773.724 471.845 773.905 472.57 774.449 473.294C774.63 473.657 774.811 474.2 774.992 474.563C777.167 481.811 772.999 489.24 765.932 491.414C764.483 491.777 763.033 491.958 761.584 491.958C758.866 491.596 756.329 490.69 753.792 489.24C752.705 488.696 751.436 488.153 750.349 487.609C747.269 486.522 743.101 485.978 740.927 488.696C739.84 490.327 739.296 491.958 739.115 493.951C738.934 495.944 738.39 497.938 737.303 499.75C736.034 501.924 734.041 503.555 731.686 504.098C727.518 504.823 723.35 501.562 719.908 499.025C718.82 498.119 717.733 497.394 716.646 496.669C708.854 492.139 701.063 493.045 692.365 499.568C687.292 503.736 682.58 508.447 678.594 513.702C676.782 515.876 674.789 518.232 672.796 520.406C671.346 522.218 669.353 523.849 667.178 524.755C663.373 526.205 659.568 524.936 655.944 523.668C652.682 522.581 649.783 521.675 646.884 522.4C641.629 523.668 639.455 530.191 637.462 535.99L637.28 536.714C634.2 543.419 629.489 549.217 623.872 549.217ZM604.121 534.54C607.02 534.359 609.738 535.265 612.275 536.714C613.906 537.983 615.536 539.614 616.805 541.426C618.436 543.6 620.066 545.593 622.422 546.318C628.039 548.13 632.569 541.063 634.2 535.99L634.381 535.265C636.374 529.285 638.911 521.675 645.616 520.044C649.24 519.138 652.682 520.225 656.125 521.494C659.568 522.762 662.83 523.668 665.729 522.581C667.541 521.675 669.172 520.588 670.44 518.957C672.433 516.782 674.245 514.427 676.238 512.252C680.406 506.816 685.117 501.924 690.553 497.756C699.976 490.69 709.036 489.784 717.552 494.676C718.82 495.401 720.089 496.307 721.176 497.213C724.075 499.568 727.88 502.286 730.961 501.743C732.773 501.38 734.222 500.112 734.947 498.662C735.672 497.213 736.216 495.582 736.397 493.77C736.578 491.414 737.303 489.24 738.571 487.428C741.652 483.804 747.088 484.166 750.893 485.616C752.161 486.16 753.43 486.703 754.517 487.247C756.691 488.334 759.047 489.059 761.402 489.421C767.563 489.602 772.637 484.71 772.637 478.549C772.637 477.462 772.456 476.375 772.274 475.288C772.093 474.925 771.912 474.563 771.731 474.2C771.187 473.294 770.825 472.207 770.644 471.12C770.1 466.952 773.543 463.51 776.986 462.06C778.979 461.335 780.972 460.792 783.146 460.429C784.596 460.248 785.864 459.886 787.133 459.523C791.119 458.255 794.381 455.537 796.374 451.913C797.824 449.557 798.005 446.658 797.28 443.94C796.012 440.86 794.018 438.323 791.663 436.148C788.582 433.068 785.502 429.806 785.14 425.276C784.415 416.941 793.475 411.686 798.911 408.425C803.803 405.526 811.051 399.184 808.152 393.023C807.065 391.211 805.434 389.58 803.622 388.312C801.448 386.862 799.817 385.05 798.367 382.876C794.562 375.446 801.81 367.836 807.79 362.762C811.414 359.682 815.038 354.608 815.219 350.26C815.4 348.629 814.675 346.817 813.407 345.73C811.957 344.642 810.326 343.736 808.514 343.374C806.159 342.83 803.984 341.562 802.354 339.931C798.548 335.764 800.904 330.509 803.078 325.435C804.709 321.811 806.34 318.006 805.796 314.744C804.89 309.852 799.454 306.953 794.381 306.59C784.234 305.866 775.717 312.389 771.55 316.375C767.201 320.724 763.033 325.435 759.59 330.509C757.96 332.502 756.51 334.676 754.879 336.67C744.188 350.078 730.961 361.313 718.096 372.185C696.714 390.305 671.165 410.962 643.079 426.726C639.817 428.538 636.012 430.169 632.026 431.981C624.415 435.242 616.624 438.685 611.731 443.94C608.107 448.108 604.846 452.638 602.309 457.53C598.866 463.51 595.242 469.67 589.444 474.744C585.638 477.824 581.652 480.724 577.666 483.442C572.23 486.884 567.156 490.69 562.445 495.038C555.016 502.649 550.304 515.152 555.74 524.03C558.277 528.198 562.807 531.46 569.33 533.634C577.122 536.352 585.457 536.896 593.792 535.627L596.329 535.084C599.047 534.54 601.584 534.178 604.302 533.996L604.121 534.54Z" fill="#231F20"/>
<path d="M673.614 465.593C681 421.167 617.36 373.578 531.471 359.3C445.582 345.021 369.968 369.46 362.583 413.885C355.197 458.311 418.837 505.9 504.726 520.178C590.615 534.457 666.229 510.018 673.614 465.593Z" fill="#231F20"/>
<path d="M552.66 525.661C536.533 525.661 520.406 524.212 504.46 521.675C417.847 507.179 353.702 458.798 361.131 413.68C364.755 391.573 384.687 373.816 417.122 363.306C449.194 352.978 489.964 350.984 531.64 357.87C573.316 364.756 611.368 379.795 638.367 399.908C665.366 420.022 678.594 443.759 674.97 465.684C668.99 502.286 617.711 525.661 552.66 525.661ZM483.079 356.42C459.342 356.42 437.054 359.501 418.028 365.662C386.68 375.809 367.473 393.023 363.849 413.861C356.601 457.53 419.84 504.461 505.004 518.776C590.168 533.09 665.004 509.172 672.252 465.503C675.695 444.484 663.192 422.015 636.737 402.264C610.281 382.513 572.592 367.474 531.278 360.588C515.333 357.87 499.206 356.602 483.079 356.42Z" fill="#231F20"/>
<path d="M679.218 442.201C686.604 397.776 622.964 350.187 537.075 335.909C451.186 321.63 375.572 346.069 368.187 390.494C360.801 434.919 424.441 482.508 510.33 496.787C596.219 511.066 671.833 486.627 679.218 442.201Z" fill="white"/>
<path d="M558.639 502.286C542.331 502.286 526.023 500.837 510.078 498.119C423.645 483.804 359.319 435.423 366.749 390.305C370.373 368.379 390.305 350.441 422.739 339.931C454.812 329.603 495.582 327.61 537.258 334.495C578.934 341.381 616.986 356.42 643.985 376.534C670.983 396.647 684.211 420.203 680.587 442.309C676.963 464.234 657.031 482.173 624.596 492.683C605.208 499.206 582.739 502.286 558.639 502.286ZM488.696 333.046C464.959 333.046 442.671 336.126 423.645 342.287C392.117 352.434 372.909 369.648 369.467 390.667C362.219 434.336 425.457 481.448 510.621 495.582C551.935 502.467 592.161 500.656 623.871 490.327C655.4 480.18 674.607 462.966 678.05 441.947C681.493 420.927 668.99 398.459 642.535 378.708C616.08 358.957 578.39 343.917 537.077 337.032C520.95 334.495 504.823 333.046 488.696 333.046Z" fill="#231F20"/>
<path d="M637.28 484.348C641.267 485.072 643.622 489.965 647.79 490.69C653.77 491.596 656.85 483.804 661.38 479.818C666.997 475.106 675.514 476.375 682.218 479.093C688.922 481.811 695.446 486.16 702.694 486.703C709.942 487.247 718.458 481.992 717.733 474.744C717.19 469.127 711.391 464.416 712.66 458.798C713.566 454.812 717.914 452.456 722.082 451.732C726.25 451.007 730.598 450.826 734.222 448.832C739.658 445.39 741.652 438.323 738.571 432.706C737.484 431.256 736.759 429.806 736.034 428.357C734.404 423.646 738.39 419.116 741.652 415.31C749.081 406.25 752.705 391.936 744.913 383.419C736.397 374.178 721.357 377.621 709.76 382.513C681.131 394.654 651.595 411.143 631.12 435.061C617.711 450.644 611.188 473.294 607.201 493.045C620.429 502.468 626.227 482.354 637.28 484.348Z" fill="black"/>
<path d="M614.087 496.669C611.188 496.488 608.289 495.582 605.933 493.589C605.571 493.226 605.39 492.864 605.39 492.32C610.826 465.684 618.617 446.658 629.67 433.793C647.247 413.317 673.158 395.922 708.855 380.882C720.452 375.99 736.216 372.185 745.276 382.151C753.611 391.392 749.987 406.25 742.014 415.854L741.652 416.398C738.753 419.84 735.31 423.827 736.76 427.813C737.122 428.719 737.666 429.625 738.209 430.35C738.572 430.894 738.934 431.437 739.296 431.981C742.739 438.323 740.565 446.114 734.585 449.92C731.686 451.369 728.606 452.275 725.525 452.456C724.438 452.638 723.17 452.819 722.082 453C720.27 453.362 714.653 454.812 713.747 459.161C713.204 461.879 714.472 464.416 716.103 467.134C717.552 469.308 718.458 471.845 719.002 474.563C719.364 477.824 718.096 480.905 715.74 483.079C712.298 486.522 707.405 488.334 702.513 487.972C696.896 487.609 692.003 485.072 687.111 482.717C685.299 481.811 683.487 480.905 681.675 480.18C677.87 478.549 668.266 475.469 662.105 480.542C660.656 481.811 659.387 483.442 658.119 485.072C655.22 488.696 652.139 492.502 647.428 491.777C645.254 491.233 643.079 489.965 641.448 488.334C640.18 487.066 638.549 485.978 636.918 485.435C632.932 484.71 629.489 487.428 625.865 490.508C622.241 493.589 618.798 496.669 614.087 496.669ZM608.108 491.958C614.812 496.488 619.161 492.864 624.234 488.696C628.04 485.435 632.207 482.173 637.462 483.079C639.636 483.623 641.63 484.891 643.26 486.522C644.529 487.79 646.16 488.878 647.972 489.421C651.233 489.965 653.589 487.066 656.307 483.623C657.575 481.811 659.025 480.18 660.656 478.73C667.904 472.57 678.594 476.012 682.762 477.824C684.574 478.549 686.386 479.455 688.198 480.361C693.09 482.717 697.62 484.891 702.694 485.254C706.862 485.435 710.848 483.985 713.928 481.086C715.74 479.455 716.646 477.1 716.465 474.563C716.103 472.207 715.197 470.033 713.928 468.04C712.298 464.959 710.486 461.879 711.392 458.255C712.298 454.268 716.103 451.369 721.72 450.101C722.807 449.92 724.076 449.738 725.344 449.557C728.243 449.376 730.961 448.651 733.498 447.383C738.39 444.302 740.021 437.96 737.303 432.887C736.941 432.343 736.76 431.981 736.397 431.437C735.672 430.531 735.129 429.444 734.585 428.176C732.773 422.921 736.76 418.21 740.021 414.404L740.384 413.861C747.632 405.163 751.074 391.754 743.645 383.6C735.491 374.722 720.814 378.346 709.942 382.876C674.608 397.734 649.059 414.767 631.664 435.061C621.154 447.745 613.362 466.409 608.108 491.958Z" fill="#231F20"/>
<path d="M379.795 508.447C377.258 508.447 374.722 509.353 372.547 510.622C370.373 512.071 369.467 514.97 370.554 517.326C371.641 518.776 373.091 519.682 374.903 520.044C383.238 522.762 392.117 524.03 400.814 523.487C407.156 523.124 424.008 516.782 415.129 508.085C409.512 502.649 387.043 507.722 379.795 508.447Z" fill="#D1D3D4"/>
<path d="M352.796 515.876C355.695 515.152 359.319 513.702 358.594 511.709C358.232 510.984 357.688 510.259 356.964 509.897C351.165 505.548 342.105 503.374 333.045 502.83C324.529 502.286 285.208 504.461 302.241 514.246C314.019 521.131 339.568 519.138 352.796 515.876Z" fill="#D1D3D4"/>
<path d="M270.35 505.185C262.559 499.749 252.955 497.394 243.351 498.481C240.996 498.844 238.097 499.75 237.553 502.286C237.372 503.374 237.734 504.642 238.278 505.548C242.445 512.796 252.049 513.883 260.203 514.245C263.283 514.427 267.089 514.064 268.176 510.984C268.901 508.809 267.632 505.91 269.263 504.279" fill="#D1D3D4"/>
<path d="M442.31 512.252C437.961 510.44 433.068 510.259 428.538 511.709C426.364 512.434 423.827 514.789 425.096 516.782C425.639 517.507 426.364 517.87 427.27 518.232C429.626 519.138 432.162 519.863 434.518 520.588C436.511 521.312 438.685 521.494 440.679 521.312C442.853 520.95 444.484 519.5 445.209 517.507C445.571 515.695 444.303 513.883 442.491 513.521C442.309 513.521 441.947 513.521 441.766 513.521" fill="#D1D3D4"/>
<path d="M364.212 521.856C359.682 519.681 354.427 519.319 349.535 520.769C348.085 521.131 346.635 522.218 346.998 523.668C347.179 524.755 348.447 525.299 349.535 525.48C352.434 526.386 355.333 526.929 358.413 527.111C360.225 527.473 362.037 527.111 363.668 526.205C365.299 525.299 365.843 523.305 364.937 521.675" fill="#D1D3D4"/>
<path d="M292.275 515.695L285.027 510.078C284.484 509.534 283.94 509.172 283.215 508.991C280.86 508.266 278.504 510.984 278.867 513.521C279.41 516.057 280.86 518.051 283.215 519.319C285.209 520.769 287.383 521.856 289.739 522.218C291.188 522.581 292.638 522.218 293.544 521.312C294.269 520.225 294.269 518.775 293.725 517.688C293 516.601 292.094 515.695 291.007 514.789" fill="#D1D3D4"/>
<path d="M128.471 344.28C128.471 345.548 127.021 366.749 126.659 378.164C126.297 389.58 127.565 397.553 131.551 404.438C135.538 411.324 159.456 416.216 167.067 418.391C174.677 420.565 489.603 461.879 489.603 461.879C489.603 461.879 494.495 486.341 535.99 492.139C577.485 497.938 627.496 465.865 655.944 449.376C684.393 432.887 763.396 367.655 769.919 355.152C776.442 342.649 773.724 286.658 773.724 286.658C773.724 286.658 291.732 303.691 272.706 306.409C253.68 309.127 128.471 344.28 128.471 344.28Z" fill="#D1D3D4"/>
<path d="M546.318 494.132C542.694 494.132 539.251 493.951 535.627 493.408C497.757 487.972 489.784 467.677 488.515 462.966C466.771 460.248 173.952 421.834 166.704 419.659C165.436 419.297 163.443 418.753 161.268 418.21C147.316 414.767 133.545 410.78 130.464 404.982C126.478 397.915 125.028 389.942 125.391 377.983C125.753 370.735 126.297 359.501 126.84 352.253C127.021 348.266 127.203 344.824 127.203 344.28C127.203 343.736 127.565 343.193 128.109 343.012C133.182 341.562 253.318 307.859 272.163 305.141C291.007 302.423 753.611 286.115 773.181 285.39C773.905 285.39 774.449 285.934 774.449 286.477C774.63 288.833 777.167 343.012 770.644 355.696C764.121 368.38 684.936 433.612 656.125 450.463L648.696 454.812C621.879 470.758 582.196 494.132 546.318 494.132ZM129.558 345.186C129.558 346.454 129.377 348.629 129.196 352.253C128.833 359.682 128.109 370.735 127.746 377.983C127.384 389.399 128.652 397.009 132.457 403.714C135.357 408.968 152.571 413.317 161.812 415.673C163.986 416.216 165.979 416.76 167.248 417.122C174.496 419.297 486.522 460.067 489.603 460.61C490.146 460.61 490.509 461.154 490.69 461.698C490.69 461.879 495.945 485.254 535.99 491.052C573.679 496.488 618.073 470.214 647.609 452.819L655.038 448.47C683.487 431.981 761.946 367.111 768.469 354.79C774.268 343.736 772.456 296.443 772.093 288.108C744.732 289.014 290.826 305.322 272.344 307.859C254.586 310.214 140.974 342.106 129.558 345.186Z" fill="#231F20"/>
<path d="M451.188 237.916C451.188 237.916 423.102 236.466 397.553 243.533C372.004 250.6 140.249 330.509 133.182 336.67C126.116 342.83 124.485 354.246 146.41 355.152C168.335 356.058 503.736 402.626 503.736 402.626C503.736 402.626 506.454 428.719 544.144 428.719C581.834 428.719 661.018 375.265 710.123 341.018C759.228 306.772 777.711 294.45 772.456 279.592C767.201 264.733 729.33 246.251 694.359 264.733L451.188 237.916Z" fill="white"/>
<path d="M544.325 429.988H544.144C524.212 429.806 513.884 422.558 508.81 416.398C505.73 412.774 503.555 408.425 502.649 403.714C482.898 400.996 167.248 357.326 146.229 356.42C133.001 355.877 128.834 351.709 127.565 348.085C126.116 344.099 127.928 339.388 132.276 335.582C139.706 329.059 372.548 248.969 397.191 242.264C422.559 235.198 450.826 236.647 451.188 236.647L693.996 263.284C711.573 254.224 732.411 253.136 750.893 260.384C762.49 264.914 771.188 272.162 773.724 279.048C779.16 294.45 761.765 306.59 715.016 339.206L710.848 342.106C648.515 385.594 579.84 429.988 544.325 429.988ZM445.39 239.184C435.968 239.184 416.217 239.909 397.916 244.801C367.655 253.136 140.249 332.14 134.088 337.576C130.646 340.656 129.015 344.461 130.102 347.179C131.552 350.984 137.35 353.34 146.41 353.702C168.154 354.608 490.328 399.184 503.918 401.177C504.461 401.358 505.005 401.72 505.005 402.264C505.186 403.351 508.085 427.088 544.144 427.27H544.325C583.827 427.27 671.89 366.024 709.398 339.931L713.566 337.032C759.047 305.322 776.08 293.544 771.369 279.954C769.194 273.793 760.859 266.908 749.987 262.74C732.048 255.673 711.935 256.76 694.902 265.82C694.721 266.002 694.359 266.002 694.178 266.002L451.007 239.184C450.645 239.184 448.652 239.184 445.39 239.184Z" fill="#231F20"/>
<path d="M489.603 463.147C488.878 463.147 488.334 462.603 488.334 461.879C488.153 446.658 502.105 404.076 502.649 402.264C502.83 401.539 503.555 401.177 504.28 401.539C505.005 401.901 505.367 402.445 505.005 403.17C504.823 403.532 490.509 447.201 490.871 462.06C490.871 462.603 490.327 463.147 489.603 463.147Z" fill="#231F20"/>
<path d="M529.285 323.986L506.817 326.522C505.548 326.522 504.461 327.61 504.461 328.878C504.461 330.146 505.548 331.234 506.817 331.234L529.285 328.697C530.554 328.697 531.641 327.61 531.641 326.341C531.641 325.073 530.554 323.986 529.285 323.986Z" fill="#D1D3D4"/>
<path d="M460.067 339.569L453.544 338.3C453 338.119 452.276 338.3 451.732 338.482C450.645 339.206 450.282 340.475 450.826 341.743C451.188 342.287 451.551 342.649 452.276 342.83L458.799 344.099C459.342 344.28 460.067 344.099 460.611 343.918C461.154 343.555 461.517 343.193 461.698 342.468C462.06 341.2 461.336 339.75 460.067 339.569Z" fill="#D1D3D4"/>
<path d="M477.824 285.571H460.792C459.523 285.571 458.436 286.658 458.436 287.927C458.436 289.195 459.523 290.282 460.792 290.282H477.824C479.093 290.282 480.18 289.195 480.18 287.927C480.18 286.658 479.274 285.571 477.824 285.571Z" fill="#D1D3D4"/>
<path d="M345.911 305.866L331.415 299.342C330.328 298.799 328.878 299.161 328.154 300.248C327.429 301.336 327.791 302.785 329.06 303.51L343.556 310.033C344.643 310.577 346.092 310.214 346.817 309.127C347.361 308.04 346.998 306.59 345.911 305.866Z" fill="#D1D3D4"/>
<path d="M286.477 325.798C286.296 325.254 285.934 324.71 285.39 324.348C284.846 323.986 284.122 323.986 283.578 324.167L275.605 325.435C275.062 325.616 274.518 325.979 274.156 326.522C273.793 327.066 273.793 327.791 273.974 328.334C274.156 328.878 274.518 329.422 275.062 329.784C275.605 330.146 276.33 330.146 276.874 329.965L284.846 328.697C285.39 328.516 285.934 328.153 286.296 327.61C286.658 326.885 286.659 326.341 286.477 325.798Z" fill="#D1D3D4"/>
<path d="M639.999 314.926L620.248 313.476C618.979 313.476 617.892 314.563 617.892 315.832C617.892 317.1 618.979 318.187 620.248 318.187L639.999 319.637C641.267 319.637 642.354 318.55 642.354 317.281C642.173 315.832 641.267 314.926 639.999 314.926Z" fill="#D1D3D4"/>
<path d="M587.813 288.47L578.753 285.571C577.485 285.209 576.216 285.934 575.854 287.202C575.492 288.47 576.216 289.739 577.485 290.101L586.545 293C587.813 293.363 589.082 292.638 589.444 291.37C589.625 290.101 589.082 288.833 587.813 288.47Z" fill="#D1D3D4"/>
<path d="M428.357 263.465L413.861 261.109C412.593 260.747 411.324 261.472 410.962 262.74C410.6 264.008 411.324 265.277 412.593 265.639L427.089 267.995C428.357 268.357 429.626 267.632 429.988 266.364C430.35 265.096 429.626 263.827 428.357 263.465Z" fill="#D1D3D4"/>
<path d="M414.948 316.556C414.586 316.194 413.861 315.832 413.318 315.832H409.331C408.063 316.013 407.157 317.1 407.157 318.368C407.338 319.456 408.244 320.362 409.331 320.543H413.318C414.586 320.543 415.673 319.456 415.673 318.187C415.673 317.644 415.311 317.1 414.948 316.556Z" fill="#D1D3D4"/>
<path d="M614.268 364.574C613.543 363.487 612.094 363.125 611.007 363.668C605.571 366.205 599.772 367.474 593.793 367.292C592.524 367.292 591.437 368.38 591.437 369.648C591.437 370.916 592.524 372.004 593.793 372.004C600.497 372.004 607.201 370.554 613.362 367.655C614.449 366.93 614.812 365.662 614.268 364.574Z" fill="#D1D3D4"/>
<path d="M407.338 350.441L396.829 348.81C396.285 348.629 395.56 348.81 395.017 348.991C393.929 349.716 393.567 350.984 394.111 352.253C394.473 352.796 394.835 353.159 395.56 353.34L406.07 354.971C406.613 355.152 407.338 354.971 407.882 354.79C408.969 354.065 409.331 352.796 408.788 351.528C408.425 350.984 407.882 350.622 407.338 350.441Z" fill="#D1D3D4"/>
<path d="M240.452 314.926C240.09 313.657 238.822 312.932 237.553 313.295L223.057 315.832C221.789 316.194 221.064 317.462 221.426 318.731C221.789 319.999 223.057 320.724 224.326 320.362L238.822 317.825C239.909 317.462 240.633 316.194 240.452 314.926Z" fill="#D1D3D4"/>
<path d="M698.527 292.094L691.822 281.585C691.097 280.498 689.829 280.135 688.561 280.679C687.473 281.404 687.111 282.672 687.655 283.94L694.359 294.45C695.084 295.537 696.352 295.9 697.621 295.356C698.708 294.631 699.07 293.363 698.527 292.094Z" fill="#D1D3D4"/>
<path d="M538.889 361.494C537.983 360.588 536.534 360.588 535.628 361.494L523.487 371.46C522.581 372.366 522.581 373.816 523.487 374.722C524.393 375.628 525.843 375.628 526.749 374.722L538.889 364.574C539.614 363.668 539.614 362.4 538.889 361.494Z" fill="#D1D3D4"/>
<path d="M533.816 275.062C533.453 275.062 533.091 274.88 532.728 274.699L532.91 274.88L532.547 274.699L532.185 274.518C531.641 274.156 530.916 273.974 530.373 273.431C530.01 273.25 529.829 273.068 529.467 272.887L529.104 272.706C529.104 272.706 529.104 272.706 528.923 272.706C528.38 272.344 527.836 271.8 527.474 271.438C527.111 271.075 526.568 270.532 526.024 269.988C525.843 269.807 525.843 269.626 525.662 269.626L525.118 268.72C524.756 268.176 524.393 267.632 524.031 267.089C523.668 266.545 523.668 266.364 523.487 266.183C523.487 266.183 523.487 266.183 523.487 266.002C523.487 265.82 523.306 265.639 523.306 265.458C522.944 264.19 521.675 263.465 520.407 263.827C519.138 264.19 518.414 265.458 518.776 266.726C521.132 272.887 526.205 277.78 532.366 279.954C533.634 280.316 534.903 279.592 535.265 278.323C535.628 277.055 534.903 275.786 533.634 275.424L533.816 275.062Z" fill="#D1D3D4"/>
<path d="M344.462 337.394C344.099 336.126 342.831 335.401 341.562 335.764C337.214 337.394 332.502 338.3 327.791 338.482C326.523 338.482 325.436 339.569 325.436 340.837C325.436 342.106 326.523 343.193 327.791 343.193C332.865 343.012 338.12 342.106 342.831 340.294C344.099 339.931 344.824 338.663 344.462 337.394Z" fill="#D1D3D4"/>
<path d="M591.619 337.757C586.364 332.502 580.384 327.972 573.861 324.348C572.774 323.623 571.324 323.986 570.599 325.254C569.875 326.341 570.237 327.791 571.505 328.516C577.666 331.958 583.283 336.126 588.176 341.2C590.35 343.193 593.612 339.75 591.619 337.757Z" fill="#D1D3D4"/>
</svg>
